<mxfile host="app.diagrams.net" agent="Mozilla/5.0 (Windows NT 10.0; Win64; x64) AppleWebKit/537.36 (KHTML, like Gecko) Chrome/134.0.0.0 YaBrowser/25.4.0.0 Safari/537.36" version="27.0.6" pages="9">
  <diagram name="UML диаграмма компонентов" id="sremgNFSqXwjPKa-5-mH">
    <mxGraphModel grid="1" page="1" gridSize="10" guides="1" tooltips="1" connect="1" arrows="1" fold="1" pageScale="1" pageWidth="1169" pageHeight="827" math="0" shadow="0">
      <root>
        <mxCell id="0" />
        <mxCell id="1" parent="0" />
        <mxCell id="EpwzCUGlogq7fDIIVQxE-1" value="UML Диаграмма компонентов" style="text;html=1;align=center;verticalAlign=middle;resizable=0;points=[];autosize=1;strokeColor=none;fillColor=none;" vertex="1" parent="1">
          <mxGeometry x="40" y="40" width="190" height="30" as="geometry" />
        </mxCell>
        <mxCell id="EpwzCUGlogq7fDIIVQxE-22" value="&lt;p style=&quot;margin:0px;margin-top:6px;text-align:center;&quot;&gt;&lt;b&gt;Система проверки багажа&lt;/b&gt;&lt;/p&gt;&lt;hr size=&quot;1&quot; style=&quot;border-style:solid;&quot;&gt;&lt;p style=&quot;margin:0px;margin-left:8px;&quot;&gt;&lt;br&gt;&lt;/p&gt;" style="align=left;overflow=fill;html=1;dropTarget=0;whiteSpace=wrap;" vertex="1" parent="1">
          <mxGeometry x="298" y="70" width="770" height="730" as="geometry" />
        </mxCell>
        <mxCell id="EpwzCUGlogq7fDIIVQxE-23" value="" style="shape=component;jettyWidth=8;jettyHeight=4;" vertex="1" parent="EpwzCUGlogq7fDIIVQxE-22">
          <mxGeometry x="1" width="20" height="20" relative="1" as="geometry">
            <mxPoint x="-40" as="offset" />
          </mxGeometry>
        </mxCell>
        <mxCell id="MUneaCaJgaD-fJ8iTXzQ-74" style="edgeStyle=orthogonalEdgeStyle;rounded=0;orthogonalLoop=1;jettySize=auto;html=1;entryX=0;entryY=0.5;entryDx=0;entryDy=0;" edge="1" parent="1" source="MUneaCaJgaD-fJ8iTXzQ-1" target="MUneaCaJgaD-fJ8iTXzQ-62">
          <mxGeometry relative="1" as="geometry" />
        </mxCell>
        <mxCell id="MUneaCaJgaD-fJ8iTXzQ-1" value="" style="html=1;rounded=0;" vertex="1" parent="1">
          <mxGeometry x="278" y="175" width="30" height="30" as="geometry" />
        </mxCell>
        <mxCell id="MUneaCaJgaD-fJ8iTXzQ-2" value="" style="endArrow=none;html=1;rounded=0;align=center;verticalAlign=top;endFill=0;labelBackgroundColor=none;endSize=2;" edge="1" parent="1" source="MUneaCaJgaD-fJ8iTXzQ-1" target="MUneaCaJgaD-fJ8iTXzQ-3">
          <mxGeometry relative="1" as="geometry" />
        </mxCell>
        <mxCell id="MUneaCaJgaD-fJ8iTXzQ-3" value="" style="ellipse;html=1;fontSize=11;align=center;fillColor=none;points=[];aspect=fixed;resizable=0;verticalAlign=bottom;labelPosition=center;verticalLabelPosition=top;flipH=1;" vertex="1" parent="1">
          <mxGeometry x="100" y="151" width="8" height="8" as="geometry" />
        </mxCell>
        <mxCell id="MUneaCaJgaD-fJ8iTXzQ-8" value="Проверить багаж" style="text;html=1;align=center;verticalAlign=middle;resizable=0;points=[];autosize=1;strokeColor=none;fillColor=none;" vertex="1" parent="1">
          <mxGeometry x="113" y="110" width="120" height="30" as="geometry" />
        </mxCell>
        <mxCell id="MUneaCaJgaD-fJ8iTXzQ-89" style="edgeStyle=orthogonalEdgeStyle;rounded=0;orthogonalLoop=1;jettySize=auto;html=1;entryX=0;entryY=0.5;entryDx=0;entryDy=0;" edge="1" parent="1" source="MUneaCaJgaD-fJ8iTXzQ-10" target="MUneaCaJgaD-fJ8iTXzQ-88">
          <mxGeometry relative="1" as="geometry" />
        </mxCell>
        <mxCell id="MUneaCaJgaD-fJ8iTXzQ-10" value="" style="html=1;rounded=0;" vertex="1" parent="1">
          <mxGeometry x="278" y="335" width="30" height="30" as="geometry" />
        </mxCell>
        <mxCell id="MUneaCaJgaD-fJ8iTXzQ-11" value="" style="endArrow=none;html=1;rounded=0;align=center;verticalAlign=top;endFill=0;labelBackgroundColor=none;endSize=2;" edge="1" parent="1" source="MUneaCaJgaD-fJ8iTXzQ-10" target="MUneaCaJgaD-fJ8iTXzQ-12">
          <mxGeometry relative="1" as="geometry" />
        </mxCell>
        <mxCell id="MUneaCaJgaD-fJ8iTXzQ-12" value="" style="ellipse;html=1;fontSize=11;align=center;fillColor=none;points=[];aspect=fixed;resizable=0;verticalAlign=bottom;labelPosition=center;verticalLabelPosition=top;flipH=1;" vertex="1" parent="1">
          <mxGeometry x="90" y="300" width="8" height="8" as="geometry" />
        </mxCell>
        <mxCell id="MUneaCaJgaD-fJ8iTXzQ-13" value="Отправить сообщение" style="text;html=1;align=center;verticalAlign=middle;resizable=0;points=[];autosize=1;strokeColor=none;fillColor=none;" vertex="1" parent="1">
          <mxGeometry x="90" y="260" width="150" height="30" as="geometry" />
        </mxCell>
        <mxCell id="MUneaCaJgaD-fJ8iTXzQ-109" style="edgeStyle=orthogonalEdgeStyle;rounded=0;orthogonalLoop=1;jettySize=auto;html=1;entryX=0;entryY=0.5;entryDx=0;entryDy=0;" edge="1" parent="1" source="MUneaCaJgaD-fJ8iTXzQ-14" target="MUneaCaJgaD-fJ8iTXzQ-108">
          <mxGeometry relative="1" as="geometry" />
        </mxCell>
        <mxCell id="MUneaCaJgaD-fJ8iTXzQ-14" value="" style="html=1;rounded=0;" vertex="1" parent="1">
          <mxGeometry x="278" y="540" width="30" height="30" as="geometry" />
        </mxCell>
        <mxCell id="MUneaCaJgaD-fJ8iTXzQ-15" value="" style="endArrow=none;html=1;rounded=0;align=center;verticalAlign=top;endFill=0;labelBackgroundColor=none;endSize=2;" edge="1" parent="1" source="MUneaCaJgaD-fJ8iTXzQ-14" target="MUneaCaJgaD-fJ8iTXzQ-16">
          <mxGeometry relative="1" as="geometry" />
        </mxCell>
        <mxCell id="MUneaCaJgaD-fJ8iTXzQ-16" value="" style="ellipse;html=1;fontSize=11;align=center;fillColor=none;points=[];aspect=fixed;resizable=0;verticalAlign=bottom;labelPosition=center;verticalLabelPosition=top;flipH=1;" vertex="1" parent="1">
          <mxGeometry x="120" y="506" width="8" height="8" as="geometry" />
        </mxCell>
        <mxCell id="MUneaCaJgaD-fJ8iTXzQ-18" value="Распределить коридор" style="text;html=1;align=center;verticalAlign=middle;resizable=0;points=[];autosize=1;strokeColor=none;fillColor=none;" vertex="1" parent="1">
          <mxGeometry x="90" y="450" width="150" height="30" as="geometry" />
        </mxCell>
        <mxCell id="MUneaCaJgaD-fJ8iTXzQ-90" style="edgeStyle=orthogonalEdgeStyle;rounded=0;orthogonalLoop=1;jettySize=auto;html=1;entryX=0;entryY=0.5;entryDx=0;entryDy=0;" edge="1" parent="1" source="MUneaCaJgaD-fJ8iTXzQ-20" target="MUneaCaJgaD-fJ8iTXzQ-48">
          <mxGeometry relative="1" as="geometry" />
        </mxCell>
        <mxCell id="MUneaCaJgaD-fJ8iTXzQ-20" value="" style="html=1;rounded=0;" vertex="1" parent="1">
          <mxGeometry x="278" y="690" width="30" height="30" as="geometry" />
        </mxCell>
        <mxCell id="MUneaCaJgaD-fJ8iTXzQ-21" value="" style="endArrow=none;html=1;rounded=0;align=center;verticalAlign=top;endFill=0;labelBackgroundColor=none;endSize=2;" edge="1" parent="1" source="MUneaCaJgaD-fJ8iTXzQ-20" target="MUneaCaJgaD-fJ8iTXzQ-22">
          <mxGeometry relative="1" as="geometry" />
        </mxCell>
        <mxCell id="MUneaCaJgaD-fJ8iTXzQ-22" value="" style="ellipse;html=1;fontSize=11;align=center;fillColor=none;points=[];aspect=fixed;resizable=0;verticalAlign=bottom;labelPosition=center;verticalLabelPosition=top;flipH=1;" vertex="1" parent="1">
          <mxGeometry x="128" y="660" width="8" height="8" as="geometry" />
        </mxCell>
        <mxCell id="MUneaCaJgaD-fJ8iTXzQ-23" value="Предоставить отчеты" style="text;html=1;align=center;verticalAlign=middle;resizable=0;points=[];autosize=1;strokeColor=none;fillColor=none;" vertex="1" parent="1">
          <mxGeometry x="103" y="620" width="140" height="30" as="geometry" />
        </mxCell>
        <mxCell id="MUneaCaJgaD-fJ8iTXzQ-24" value="" style="html=1;rounded=0;" vertex="1" parent="1">
          <mxGeometry x="1048" y="220" width="30" height="30" as="geometry" />
        </mxCell>
        <mxCell id="MUneaCaJgaD-fJ8iTXzQ-25" value="" style="endArrow=none;html=1;rounded=0;align=center;verticalAlign=top;endFill=0;labelBackgroundColor=none;endSize=2;" edge="1" parent="1" source="MUneaCaJgaD-fJ8iTXzQ-24" target="MUneaCaJgaD-fJ8iTXzQ-26">
          <mxGeometry relative="1" as="geometry" />
        </mxCell>
        <mxCell id="MUneaCaJgaD-fJ8iTXzQ-26" value="" style="shape=requiredInterface;html=1;fontSize=11;align=center;fillColor=none;points=[];aspect=fixed;resizable=0;verticalAlign=bottom;labelPosition=center;verticalLabelPosition=top;flipH=1;" vertex="1" parent="1">
          <mxGeometry x="1258" y="180" width="5" height="10" as="geometry" />
        </mxCell>
        <mxCell id="MUneaCaJgaD-fJ8iTXzQ-27" value="Получить видеопоток" style="text;html=1;align=center;verticalAlign=middle;resizable=0;points=[];autosize=1;strokeColor=none;fillColor=none;" vertex="1" parent="1">
          <mxGeometry x="1198" y="140" width="140" height="30" as="geometry" />
        </mxCell>
        <mxCell id="MUneaCaJgaD-fJ8iTXzQ-28" value="" style="html=1;rounded=0;" vertex="1" parent="1">
          <mxGeometry x="1048" y="308" width="30" height="30" as="geometry" />
        </mxCell>
        <mxCell id="MUneaCaJgaD-fJ8iTXzQ-29" value="" style="endArrow=none;html=1;rounded=0;align=center;verticalAlign=top;endFill=0;labelBackgroundColor=none;endSize=2;" edge="1" parent="1" source="MUneaCaJgaD-fJ8iTXzQ-28" target="MUneaCaJgaD-fJ8iTXzQ-30">
          <mxGeometry relative="1" as="geometry" />
        </mxCell>
        <mxCell id="MUneaCaJgaD-fJ8iTXzQ-30" value="" style="shape=requiredInterface;html=1;fontSize=11;align=center;fillColor=none;points=[];aspect=fixed;resizable=0;verticalAlign=bottom;labelPosition=center;verticalLabelPosition=top;flipH=1;" vertex="1" parent="1">
          <mxGeometry x="1265.5" y="284" width="5" height="10" as="geometry" />
        </mxCell>
        <mxCell id="MUneaCaJgaD-fJ8iTXzQ-32" value="Получить данные по багажу" style="text;html=1;align=center;verticalAlign=middle;resizable=0;points=[];autosize=1;strokeColor=none;fillColor=none;" vertex="1" parent="1">
          <mxGeometry x="1248" y="250" width="180" height="30" as="geometry" />
        </mxCell>
        <mxCell id="MUneaCaJgaD-fJ8iTXzQ-34" value="&lt;p style=&quot;margin:0px;margin-top:6px;text-align:center;&quot;&gt;&lt;b&gt;Обработчик видео&lt;/b&gt;&lt;/p&gt;&lt;hr size=&quot;1&quot; style=&quot;border-style:solid;&quot;&gt;&lt;p style=&quot;margin:0px;margin-left:8px;&quot;&gt;&lt;br&gt;&lt;/p&gt;" style="align=left;overflow=fill;html=1;dropTarget=0;whiteSpace=wrap;" vertex="1" parent="1">
          <mxGeometry x="838" y="140" width="180" height="90" as="geometry" />
        </mxCell>
        <mxCell id="MUneaCaJgaD-fJ8iTXzQ-35" value="" style="shape=component;jettyWidth=8;jettyHeight=4;" vertex="1" parent="MUneaCaJgaD-fJ8iTXzQ-34">
          <mxGeometry x="1" width="20" height="20" relative="1" as="geometry">
            <mxPoint x="-24" y="4" as="offset" />
          </mxGeometry>
        </mxCell>
        <mxCell id="MUneaCaJgaD-fJ8iTXzQ-37" value="&lt;p style=&quot;margin:0px;margin-top:6px;text-align:center;&quot;&gt;&lt;b&gt;Обученная нейронная&amp;nbsp;&lt;/b&gt;&lt;/p&gt;&lt;p style=&quot;margin:0px;margin-top:6px;text-align:center;&quot;&gt;&lt;b&gt;сеть&lt;/b&gt;&lt;/p&gt;&lt;hr size=&quot;1&quot; style=&quot;border-style:solid;&quot;&gt;&lt;p style=&quot;margin:0px;margin-left:8px;&quot;&gt;&lt;br&gt;&lt;/p&gt;" style="align=left;overflow=fill;html=1;dropTarget=0;whiteSpace=wrap;" vertex="1" parent="1">
          <mxGeometry x="578" y="140" width="180" height="90" as="geometry" />
        </mxCell>
        <mxCell id="MUneaCaJgaD-fJ8iTXzQ-38" value="" style="shape=component;jettyWidth=8;jettyHeight=4;" vertex="1" parent="MUneaCaJgaD-fJ8iTXzQ-37">
          <mxGeometry x="1" width="20" height="20" relative="1" as="geometry">
            <mxPoint x="-24" y="4" as="offset" />
          </mxGeometry>
        </mxCell>
        <mxCell id="MUneaCaJgaD-fJ8iTXzQ-39" value="port1" style="fontStyle=0;labelPosition=right;verticalLabelPosition=middle;align=left;verticalAlign=middle;spacingLeft=2;" vertex="1" parent="1">
          <mxGeometry x="567" y="190" width="20" height="20" as="geometry" />
        </mxCell>
        <mxCell id="MUneaCaJgaD-fJ8iTXzQ-40" value="port1" style="fontStyle=0;labelPosition=right;verticalLabelPosition=middle;align=left;verticalAlign=middle;spacingLeft=2;" vertex="1" parent="1">
          <mxGeometry x="828" y="180" width="20" height="20" as="geometry" />
        </mxCell>
        <mxCell id="MUneaCaJgaD-fJ8iTXzQ-119" style="edgeStyle=orthogonalEdgeStyle;rounded=0;orthogonalLoop=1;jettySize=auto;html=1;" edge="1" parent="1" source="MUneaCaJgaD-fJ8iTXzQ-41" target="MUneaCaJgaD-fJ8iTXzQ-24">
          <mxGeometry relative="1" as="geometry" />
        </mxCell>
        <mxCell id="MUneaCaJgaD-fJ8iTXzQ-41" value="port1" style="fontStyle=0;labelPosition=right;verticalLabelPosition=middle;align=left;verticalAlign=middle;spacingLeft=2;" vertex="1" parent="1">
          <mxGeometry x="1008" y="180" width="20" height="20" as="geometry" />
        </mxCell>
        <mxCell id="MUneaCaJgaD-fJ8iTXzQ-56" style="edgeStyle=orthogonalEdgeStyle;rounded=0;orthogonalLoop=1;jettySize=auto;html=1;exitX=1;exitY=0.5;exitDx=0;exitDy=0;entryX=0;entryY=0.75;entryDx=0;entryDy=0;" edge="1" parent="1" source="MUneaCaJgaD-fJ8iTXzQ-42" target="MUneaCaJgaD-fJ8iTXzQ-40">
          <mxGeometry relative="1" as="geometry" />
        </mxCell>
        <mxCell id="MUneaCaJgaD-fJ8iTXzQ-42" value="port1" style="fontStyle=0;labelPosition=right;verticalLabelPosition=middle;align=left;verticalAlign=middle;spacingLeft=2;" vertex="1" parent="1">
          <mxGeometry x="748" y="180" width="20" height="20" as="geometry" />
        </mxCell>
        <mxCell id="MUneaCaJgaD-fJ8iTXzQ-44" value="&lt;p style=&quot;margin:0px;margin-top:6px;text-align:center;&quot;&gt;&lt;b&gt;Генератор отчетов&lt;/b&gt;&lt;/p&gt;&lt;hr size=&quot;1&quot; style=&quot;border-style:solid;&quot;&gt;&lt;p style=&quot;margin:0px;margin-left:8px;&quot;&gt;&lt;br&gt;&lt;/p&gt;" style="align=left;overflow=fill;html=1;dropTarget=0;whiteSpace=wrap;" vertex="1" parent="1">
          <mxGeometry x="771.5" y="650" width="180" height="90" as="geometry" />
        </mxCell>
        <mxCell id="MUneaCaJgaD-fJ8iTXzQ-45" value="" style="shape=component;jettyWidth=8;jettyHeight=4;" vertex="1" parent="MUneaCaJgaD-fJ8iTXzQ-44">
          <mxGeometry x="1" width="20" height="20" relative="1" as="geometry">
            <mxPoint x="-24" y="4" as="offset" />
          </mxGeometry>
        </mxCell>
        <mxCell id="MUneaCaJgaD-fJ8iTXzQ-48" value="port1" style="fontStyle=0;labelPosition=right;verticalLabelPosition=middle;align=left;verticalAlign=middle;spacingLeft=2;" vertex="1" parent="1">
          <mxGeometry x="758" y="695" width="20" height="20" as="geometry" />
        </mxCell>
        <mxCell id="MUneaCaJgaD-fJ8iTXzQ-50" value="&lt;p style=&quot;margin:0px;margin-top:6px;text-align:center;&quot;&gt;&lt;b&gt;Генератор сообщений&lt;/b&gt;&lt;/p&gt;&lt;hr size=&quot;1&quot; style=&quot;border-style:solid;&quot;&gt;&lt;p style=&quot;margin:0px;margin-left:8px;&quot;&gt;&lt;br&gt;&lt;/p&gt;" style="align=left;overflow=fill;html=1;dropTarget=0;whiteSpace=wrap;" vertex="1" parent="1">
          <mxGeometry x="487" y="416" width="180" height="90" as="geometry" />
        </mxCell>
        <mxCell id="MUneaCaJgaD-fJ8iTXzQ-51" value="" style="shape=component;jettyWidth=8;jettyHeight=4;" vertex="1" parent="MUneaCaJgaD-fJ8iTXzQ-50">
          <mxGeometry x="1" width="20" height="20" relative="1" as="geometry">
            <mxPoint x="-24" y="4" as="offset" />
          </mxGeometry>
        </mxCell>
        <mxCell id="MUneaCaJgaD-fJ8iTXzQ-60" value="&lt;p style=&quot;margin:0px;margin-top:6px;text-align:center;&quot;&gt;&lt;b&gt;Контроллер конфигурации и управления системой&lt;/b&gt;&lt;/p&gt;&lt;p style=&quot;margin:0px;margin-top:6px;text-align:center;&quot;&gt;&lt;b&gt;&lt;br&gt;&lt;/b&gt;&lt;/p&gt;&lt;p style=&quot;margin:0px;margin-left:8px;&quot;&gt;&lt;br&gt;&lt;/p&gt;" style="align=left;overflow=fill;html=1;dropTarget=0;whiteSpace=wrap;" vertex="1" parent="1">
          <mxGeometry x="487" y="275" width="180" height="90" as="geometry" />
        </mxCell>
        <mxCell id="MUneaCaJgaD-fJ8iTXzQ-61" value="" style="shape=component;jettyWidth=8;jettyHeight=4;" vertex="1" parent="MUneaCaJgaD-fJ8iTXzQ-60">
          <mxGeometry x="1" width="20" height="20" relative="1" as="geometry">
            <mxPoint x="-24" y="4" as="offset" />
          </mxGeometry>
        </mxCell>
        <mxCell id="MUneaCaJgaD-fJ8iTXzQ-62" value="port1" style="fontStyle=0;labelPosition=right;verticalLabelPosition=middle;align=left;verticalAlign=middle;spacingLeft=2;" vertex="1" parent="1">
          <mxGeometry x="478" y="294" width="20" height="20" as="geometry" />
        </mxCell>
        <mxCell id="MUneaCaJgaD-fJ8iTXzQ-78" style="edgeStyle=orthogonalEdgeStyle;rounded=0;orthogonalLoop=1;jettySize=auto;html=1;entryX=0;entryY=0.5;entryDx=0;entryDy=0;exitX=0;exitY=0.25;exitDx=0;exitDy=0;" edge="1" parent="1" source="MUneaCaJgaD-fJ8iTXzQ-76" target="MUneaCaJgaD-fJ8iTXzQ-39">
          <mxGeometry relative="1" as="geometry">
            <Array as="points">
              <mxPoint x="548" y="270" />
              <mxPoint x="548" y="200" />
            </Array>
          </mxGeometry>
        </mxCell>
        <mxCell id="MUneaCaJgaD-fJ8iTXzQ-76" value="port1" style="fontStyle=0;labelPosition=right;verticalLabelPosition=middle;align=left;verticalAlign=middle;spacingLeft=2;" vertex="1" parent="1">
          <mxGeometry x="538" y="265" width="20" height="20" as="geometry" />
        </mxCell>
        <mxCell id="MUneaCaJgaD-fJ8iTXzQ-80" value="" style="html=1;rounded=0;" vertex="1" parent="1">
          <mxGeometry x="478" y="338" width="20" height="20" as="geometry" />
        </mxCell>
        <mxCell id="MUneaCaJgaD-fJ8iTXzQ-81" value="" style="endArrow=none;html=1;rounded=0;align=center;verticalAlign=top;endFill=0;labelBackgroundColor=none;endSize=2;" edge="1" parent="1" source="MUneaCaJgaD-fJ8iTXzQ-80" target="MUneaCaJgaD-fJ8iTXzQ-82">
          <mxGeometry relative="1" as="geometry" />
        </mxCell>
        <mxCell id="MUneaCaJgaD-fJ8iTXzQ-82" value="" style="ellipse;html=1;fontSize=11;align=center;fillColor=none;points=[];aspect=fixed;resizable=0;verticalAlign=bottom;labelPosition=center;verticalLabelPosition=top;flipH=1;" vertex="1" parent="1">
          <mxGeometry x="435" y="408" width="8" height="8" as="geometry" />
        </mxCell>
        <mxCell id="MUneaCaJgaD-fJ8iTXzQ-83" value="" style="html=1;rounded=0;" vertex="1" parent="1">
          <mxGeometry x="478" y="440" width="20" height="20" as="geometry" />
        </mxCell>
        <mxCell id="MUneaCaJgaD-fJ8iTXzQ-84" value="" style="endArrow=none;html=1;rounded=0;align=center;verticalAlign=top;endFill=0;labelBackgroundColor=none;endSize=2;" edge="1" parent="1" source="MUneaCaJgaD-fJ8iTXzQ-83" target="MUneaCaJgaD-fJ8iTXzQ-85">
          <mxGeometry relative="1" as="geometry" />
        </mxCell>
        <mxCell id="MUneaCaJgaD-fJ8iTXzQ-85" value="" style="shape=requiredInterface;html=1;fontSize=11;align=center;fillColor=none;points=[];aspect=fixed;resizable=0;verticalAlign=bottom;labelPosition=center;verticalLabelPosition=top;flipH=1;rotation=-120;" vertex="1" parent="1">
          <mxGeometry x="438" y="410" width="5" height="10" as="geometry" />
        </mxCell>
        <mxCell id="MUneaCaJgaD-fJ8iTXzQ-87" value="подготовка сообщения" style="text;html=1;align=center;verticalAlign=middle;resizable=0;points=[];autosize=1;strokeColor=none;fillColor=none;" vertex="1" parent="1">
          <mxGeometry x="388" y="380" width="150" height="30" as="geometry" />
        </mxCell>
        <mxCell id="MUneaCaJgaD-fJ8iTXzQ-88" value="port1" style="fontStyle=0;labelPosition=right;verticalLabelPosition=middle;align=left;verticalAlign=middle;spacingLeft=2;" vertex="1" parent="1">
          <mxGeometry x="478" y="470" width="20" height="20" as="geometry" />
        </mxCell>
        <mxCell id="MUneaCaJgaD-fJ8iTXzQ-91" value="" style="html=1;rounded=0;" vertex="1" parent="1">
          <mxGeometry x="658" y="308" width="20" height="20" as="geometry" />
        </mxCell>
        <mxCell id="MUneaCaJgaD-fJ8iTXzQ-92" value="" style="endArrow=none;html=1;rounded=0;align=center;verticalAlign=top;endFill=0;labelBackgroundColor=none;endSize=2;" edge="1" parent="1" source="MUneaCaJgaD-fJ8iTXzQ-91" target="MUneaCaJgaD-fJ8iTXzQ-93">
          <mxGeometry relative="1" as="geometry" />
        </mxCell>
        <mxCell id="MUneaCaJgaD-fJ8iTXzQ-93" value="" style="ellipse;html=1;fontSize=11;align=center;fillColor=none;points=[];aspect=fixed;resizable=0;verticalAlign=bottom;labelPosition=center;verticalLabelPosition=top;flipH=1;" vertex="1" parent="1">
          <mxGeometry x="946.5" y="422" width="8" height="8" as="geometry" />
        </mxCell>
        <mxCell id="MUneaCaJgaD-fJ8iTXzQ-94" value="" style="html=1;rounded=0;" vertex="1" parent="1">
          <mxGeometry x="905" y="640" width="23" height="20" as="geometry" />
        </mxCell>
        <mxCell id="MUneaCaJgaD-fJ8iTXzQ-95" value="" style="endArrow=none;html=1;rounded=0;align=center;verticalAlign=top;endFill=0;labelBackgroundColor=none;endSize=2;" edge="1" parent="1" source="MUneaCaJgaD-fJ8iTXzQ-94" target="MUneaCaJgaD-fJ8iTXzQ-96">
          <mxGeometry relative="1" as="geometry" />
        </mxCell>
        <mxCell id="MUneaCaJgaD-fJ8iTXzQ-96" value="" style="shape=requiredInterface;html=1;fontSize=11;align=center;fillColor=none;points=[];aspect=fixed;resizable=0;verticalAlign=bottom;labelPosition=center;verticalLabelPosition=top;flipH=1;rotation=-60;" vertex="1" parent="1">
          <mxGeometry x="946.5" y="426" width="5" height="10" as="geometry" />
        </mxCell>
        <mxCell id="MUneaCaJgaD-fJ8iTXzQ-98" value="запрос отчетов" style="text;html=1;align=center;verticalAlign=middle;resizable=0;points=[];autosize=1;strokeColor=none;fillColor=none;" vertex="1" parent="1">
          <mxGeometry x="828" y="422" width="110" height="30" as="geometry" />
        </mxCell>
        <mxCell id="MUneaCaJgaD-fJ8iTXzQ-99" value="&lt;p style=&quot;margin:0px;margin-top:6px;text-align:center;&quot;&gt;&lt;b&gt;Контроль доступа&lt;/b&gt;&lt;/p&gt;&lt;hr size=&quot;1&quot; style=&quot;border-style:solid;&quot;&gt;&lt;p style=&quot;margin:0px;margin-left:8px;&quot;&gt;&lt;br&gt;&lt;/p&gt;" style="align=left;overflow=fill;html=1;dropTarget=0;whiteSpace=wrap;" vertex="1" parent="1">
          <mxGeometry x="487" y="550" width="180" height="90" as="geometry" />
        </mxCell>
        <mxCell id="MUneaCaJgaD-fJ8iTXzQ-100" value="" style="shape=component;jettyWidth=8;jettyHeight=4;" vertex="1" parent="MUneaCaJgaD-fJ8iTXzQ-99">
          <mxGeometry x="1" width="20" height="20" relative="1" as="geometry">
            <mxPoint x="-24" y="4" as="offset" />
          </mxGeometry>
        </mxCell>
        <mxCell id="MUneaCaJgaD-fJ8iTXzQ-108" value="port1" style="fontStyle=0;labelPosition=right;verticalLabelPosition=middle;align=left;verticalAlign=middle;spacingLeft=2;" vertex="1" parent="1">
          <mxGeometry x="478" y="590" width="20" height="20" as="geometry" />
        </mxCell>
        <mxCell id="MUneaCaJgaD-fJ8iTXzQ-113" value="" style="html=1;rounded=0;" vertex="1" parent="1">
          <mxGeometry x="658" y="341" width="20" height="19" as="geometry" />
        </mxCell>
        <mxCell id="MUneaCaJgaD-fJ8iTXzQ-114" value="" style="endArrow=none;html=1;rounded=0;align=center;verticalAlign=top;endFill=0;labelBackgroundColor=none;endSize=2;" edge="1" parent="1" source="MUneaCaJgaD-fJ8iTXzQ-113" target="MUneaCaJgaD-fJ8iTXzQ-115">
          <mxGeometry relative="1" as="geometry" />
        </mxCell>
        <mxCell id="MUneaCaJgaD-fJ8iTXzQ-115" value="" style="ellipse;html=1;fontSize=11;align=center;fillColor=none;points=[];aspect=fixed;resizable=0;verticalAlign=bottom;labelPosition=center;verticalLabelPosition=top;flipH=1;" vertex="1" parent="1">
          <mxGeometry x="788" y="490" width="8" height="8" as="geometry" />
        </mxCell>
        <mxCell id="MUneaCaJgaD-fJ8iTXzQ-116" value="" style="html=1;rounded=0;" vertex="1" parent="1">
          <mxGeometry x="653" y="590" width="25" height="20" as="geometry" />
        </mxCell>
        <mxCell id="MUneaCaJgaD-fJ8iTXzQ-117" value="" style="endArrow=none;html=1;rounded=0;align=center;verticalAlign=top;endFill=0;labelBackgroundColor=none;endSize=2;" edge="1" parent="1" source="MUneaCaJgaD-fJ8iTXzQ-116" target="MUneaCaJgaD-fJ8iTXzQ-118">
          <mxGeometry relative="1" as="geometry" />
        </mxCell>
        <mxCell id="MUneaCaJgaD-fJ8iTXzQ-118" value="" style="shape=requiredInterface;html=1;fontSize=11;align=center;fillColor=none;points=[];aspect=fixed;resizable=0;verticalAlign=bottom;labelPosition=center;verticalLabelPosition=top;flipH=1;rotation=-60;" vertex="1" parent="1">
          <mxGeometry x="788" y="496" width="5" height="10" as="geometry" />
        </mxCell>
        <mxCell id="MUneaCaJgaD-fJ8iTXzQ-120" value="Определить коридор" style="text;html=1;align=center;verticalAlign=middle;resizable=0;points=[];autosize=1;strokeColor=none;fillColor=none;" vertex="1" parent="1">
          <mxGeometry x="708" y="460" width="140" height="30" as="geometry" />
        </mxCell>
        <mxCell id="MUneaCaJgaD-fJ8iTXzQ-124" style="edgeStyle=orthogonalEdgeStyle;rounded=0;orthogonalLoop=1;jettySize=auto;html=1;entryX=0;entryY=0.5;entryDx=0;entryDy=0;" edge="1" parent="1" source="MUneaCaJgaD-fJ8iTXzQ-123" target="MUneaCaJgaD-fJ8iTXzQ-28">
          <mxGeometry relative="1" as="geometry" />
        </mxCell>
        <mxCell id="MUneaCaJgaD-fJ8iTXzQ-123" value="port1" style="fontStyle=0;labelPosition=right;verticalLabelPosition=middle;align=left;verticalAlign=middle;spacingLeft=2;" vertex="1" parent="1">
          <mxGeometry x="658" y="280" width="20" height="20" as="geometry" />
        </mxCell>
      </root>
    </mxGraphModel>
  </diagram>
  <diagram id="RtTntlhVSxeL7SwJCNmp" name="UML деятельности - распознавание">
    <mxGraphModel dx="1733" dy="1107" grid="0" gridSize="10" guides="1" tooltips="1" connect="1" arrows="1" fold="1" page="1" pageScale="1" pageWidth="1169" pageHeight="827" background="light-dark(#FFFFFF,#FFFFFF)" math="0" shadow="0">
      <root>
        <mxCell id="0" />
        <mxCell id="1" parent="0" />
        <mxCell id="sOpET0CUh0t1pMRiH7lF-1" value="&lt;font style=&quot;color: light-dark(rgb(0, 0, 0), rgb(3, 3, 3));&quot;&gt;Pool&lt;/font&gt;" style="swimlane;childLayout=stackLayout;resizeParent=1;resizeParentMax=0;startSize=20;html=1;fillColor=none;gradientColor=none;strokeColor=light-dark(#000000,#131313);" parent="1" vertex="1">
          <mxGeometry x="60" y="130" width="1090" height="950" as="geometry" />
        </mxCell>
        <mxCell id="sOpET0CUh0t1pMRiH7lF-2" value="&lt;font style=&quot;color: light-dark(rgb(0, 0, 0), rgb(2, 2, 2));&quot;&gt;Оператор&lt;/font&gt;" style="swimlane;startSize=20;html=1;strokeColor=light-dark(#000000,#131313);fillColor=none;" parent="sOpET0CUh0t1pMRiH7lF-1" vertex="1">
          <mxGeometry y="20" width="350" height="930" as="geometry" />
        </mxCell>
        <mxCell id="sOpET0CUh0t1pMRiH7lF-3" style="edgeStyle=orthogonalEdgeStyle;rounded=0;orthogonalLoop=1;jettySize=auto;html=1;entryX=0.5;entryY=0;entryDx=0;entryDy=0;strokeColor=light-dark(#000000,#131313);fontColor=light-dark(#000000,#000000);labelBackgroundColor=none;" parent="sOpET0CUh0t1pMRiH7lF-2" source="sOpET0CUh0t1pMRiH7lF-4" target="sOpET0CUh0t1pMRiH7lF-5" edge="1">
          <mxGeometry relative="1" as="geometry" />
        </mxCell>
        <mxCell id="sOpET0CUh0t1pMRiH7lF-4" value="" style="ellipse;html=1;labelBackgroundColor=none;" parent="sOpET0CUh0t1pMRiH7lF-2" vertex="1">
          <mxGeometry x="160" y="50" width="30" height="30" as="geometry" />
        </mxCell>
        <mxCell id="sOpET0CUh0t1pMRiH7lF-5" value="запуск проверки" style="html=1;align=center;verticalAlign=middle;rounded=1;absoluteArcSize=1;arcSize=10;dashed=0;whiteSpace=wrap;strokeColor=light-dark(#000000,#131313);fontColor=light-dark(#000000,#000000);labelBackgroundColor=none;fillColor=none;" parent="sOpET0CUh0t1pMRiH7lF-2" vertex="1">
          <mxGeometry x="105" y="120" width="140" height="70" as="geometry" />
        </mxCell>
        <mxCell id="sOpET0CUh0t1pMRiH7lF-6" value="Анализ результатов проверки" style="html=1;align=center;verticalAlign=middle;rounded=1;absoluteArcSize=1;arcSize=10;dashed=0;whiteSpace=wrap;strokeColor=light-dark(#000000,#131313);fontColor=light-dark(#000000,#000000);labelBackgroundColor=none;fillColor=none;" parent="sOpET0CUh0t1pMRiH7lF-2" vertex="1">
          <mxGeometry x="105" y="573" width="140" height="70" as="geometry" />
        </mxCell>
        <mxCell id="C20m0sAJZjNNmGtkcCEJ-4" style="edgeStyle=orthogonalEdgeStyle;rounded=0;orthogonalLoop=1;jettySize=auto;html=1;exitX=0.5;exitY=1;exitDx=0;exitDy=0;strokeColor=light-dark(#000000,#131313);fontColor=light-dark(#000000,#000000);labelBackgroundColor=none;" parent="sOpET0CUh0t1pMRiH7lF-2" source="sOpET0CUh0t1pMRiH7lF-7" target="C20m0sAJZjNNmGtkcCEJ-3" edge="1">
          <mxGeometry relative="1" as="geometry" />
        </mxCell>
        <mxCell id="sOpET0CUh0t1pMRiH7lF-7" value="Фиксация данных" style="html=1;align=center;verticalAlign=middle;rounded=1;absoluteArcSize=1;arcSize=10;dashed=0;whiteSpace=wrap;strokeColor=light-dark(#000000,#131313);fontColor=light-dark(#000000,#000000);labelBackgroundColor=none;fillColor=none;" parent="sOpET0CUh0t1pMRiH7lF-2" vertex="1">
          <mxGeometry x="105" y="700" width="140" height="70" as="geometry" />
        </mxCell>
        <mxCell id="C20m0sAJZjNNmGtkcCEJ-3" value="" style="ellipse;html=1;shape=endState;fillColor=strokeColor;strokeColor=light-dark(#000000,#131313);fontColor=light-dark(#000000,#000000);labelBackgroundColor=none;" parent="sOpET0CUh0t1pMRiH7lF-2" vertex="1">
          <mxGeometry x="160" y="840" width="30" height="30" as="geometry" />
        </mxCell>
        <mxCell id="sOpET0CUh0t1pMRiH7lF-8" value="&lt;font style=&quot;color: light-dark(rgb(0, 0, 0), rgb(0, 0, 0));&quot;&gt;Модуль распознавания и контроля&lt;/font&gt;" style="swimlane;startSize=20;html=1;strokeColor=light-dark(#000000,#131313);fillColor=none;" parent="sOpET0CUh0t1pMRiH7lF-1" vertex="1">
          <mxGeometry x="350" y="20" width="370" height="930" as="geometry" />
        </mxCell>
        <mxCell id="sOpET0CUh0t1pMRiH7lF-9" style="edgeStyle=orthogonalEdgeStyle;rounded=0;orthogonalLoop=1;jettySize=auto;html=1;entryX=0.5;entryY=0;entryDx=0;entryDy=0;strokeColor=light-dark(#000000,#131313);fontColor=light-dark(#000000,#000000);labelBackgroundColor=none;" parent="sOpET0CUh0t1pMRiH7lF-8" source="sOpET0CUh0t1pMRiH7lF-10" target="sOpET0CUh0t1pMRiH7lF-12" edge="1">
          <mxGeometry relative="1" as="geometry" />
        </mxCell>
        <mxCell id="sOpET0CUh0t1pMRiH7lF-10" value="Получает видеопоток" style="html=1;align=center;verticalAlign=middle;rounded=1;absoluteArcSize=1;arcSize=10;dashed=0;whiteSpace=wrap;strokeColor=light-dark(#000000,#131313);fontColor=light-dark(#000000,#000000);labelBackgroundColor=none;fillColor=none;" parent="sOpET0CUh0t1pMRiH7lF-8" vertex="1">
          <mxGeometry x="80" y="120" width="140" height="70" as="geometry" />
        </mxCell>
        <mxCell id="sOpET0CUh0t1pMRiH7lF-11" style="edgeStyle=orthogonalEdgeStyle;rounded=0;orthogonalLoop=1;jettySize=auto;html=1;entryX=0.5;entryY=0;entryDx=0;entryDy=0;strokeColor=light-dark(#000000,#131313);fontColor=light-dark(#000000,#000000);labelBackgroundColor=none;" parent="sOpET0CUh0t1pMRiH7lF-8" source="sOpET0CUh0t1pMRiH7lF-12" target="sOpET0CUh0t1pMRiH7lF-14" edge="1">
          <mxGeometry relative="1" as="geometry" />
        </mxCell>
        <mxCell id="sOpET0CUh0t1pMRiH7lF-12" value="Кадрирует, обрабатывает изображение" style="html=1;align=center;verticalAlign=middle;rounded=1;absoluteArcSize=1;arcSize=10;dashed=0;whiteSpace=wrap;strokeColor=light-dark(#000000,#131313);fontColor=light-dark(#000000,#000000);labelBackgroundColor=none;fillColor=none;" parent="sOpET0CUh0t1pMRiH7lF-8" vertex="1">
          <mxGeometry x="80" y="240" width="140" height="70" as="geometry" />
        </mxCell>
        <mxCell id="sOpET0CUh0t1pMRiH7lF-13" style="edgeStyle=orthogonalEdgeStyle;rounded=0;orthogonalLoop=1;jettySize=auto;html=1;strokeColor=light-dark(#000000,#131313);fontColor=light-dark(#000000,#000000);labelBackgroundColor=none;" parent="sOpET0CUh0t1pMRiH7lF-8" source="sOpET0CUh0t1pMRiH7lF-14" edge="1">
          <mxGeometry relative="1" as="geometry">
            <mxPoint x="150" y="503" as="targetPoint" />
          </mxGeometry>
        </mxCell>
        <mxCell id="sOpET0CUh0t1pMRiH7lF-14" value="используется нейросеть для выявления запрещенных объектов" style="html=1;align=center;verticalAlign=middle;rounded=1;absoluteArcSize=1;arcSize=10;dashed=0;whiteSpace=wrap;strokeColor=light-dark(#000000,#131313);fontColor=light-dark(#000000,#000000);labelBackgroundColor=none;fillColor=none;" parent="sOpET0CUh0t1pMRiH7lF-8" vertex="1">
          <mxGeometry x="80" y="373" width="140" height="70" as="geometry" />
        </mxCell>
        <mxCell id="sOpET0CUh0t1pMRiH7lF-16" value="определение коридора" style="html=1;align=center;verticalAlign=middle;rounded=1;absoluteArcSize=1;arcSize=10;dashed=0;whiteSpace=wrap;strokeColor=light-dark(#000000,#131313);fontColor=light-dark(#000000,#000000);labelBackgroundColor=none;fillColor=none;" parent="sOpET0CUh0t1pMRiH7lF-8" vertex="1">
          <mxGeometry x="160" y="573" width="140" height="70" as="geometry" />
        </mxCell>
        <mxCell id="sOpET0CUh0t1pMRiH7lF-17" style="edgeStyle=orthogonalEdgeStyle;rounded=0;orthogonalLoop=1;jettySize=auto;html=1;strokeColor=light-dark(#000000,#131313);fontColor=light-dark(#000000,#000000);labelBackgroundColor=none;" parent="sOpET0CUh0t1pMRiH7lF-8" source="sOpET0CUh0t1pMRiH7lF-18" target="sOpET0CUh0t1pMRiH7lF-21" edge="1">
          <mxGeometry relative="1" as="geometry" />
        </mxCell>
        <mxCell id="sOpET0CUh0t1pMRiH7lF-18" value="визуализация результатов проверки" style="html=1;align=center;verticalAlign=middle;rounded=1;absoluteArcSize=1;arcSize=10;dashed=0;whiteSpace=wrap;strokeColor=light-dark(#000000,#131313);fontColor=light-dark(#000000,#000000);labelBackgroundColor=none;fillColor=none;" parent="sOpET0CUh0t1pMRiH7lF-8" vertex="1">
          <mxGeometry x="10" y="573" width="140" height="70" as="geometry" />
        </mxCell>
        <mxCell id="sOpET0CUh0t1pMRiH7lF-20" style="edgeStyle=orthogonalEdgeStyle;rounded=0;orthogonalLoop=1;jettySize=auto;html=1;strokeColor=light-dark(#000000,#131313);fontColor=light-dark(#000000,#000000);labelBackgroundColor=none;" parent="sOpET0CUh0t1pMRiH7lF-8" source="sOpET0CUh0t1pMRiH7lF-21" edge="1">
          <mxGeometry relative="1" as="geometry">
            <mxPoint x="-100" y="738" as="targetPoint" />
          </mxGeometry>
        </mxCell>
        <mxCell id="sOpET0CUh0t1pMRiH7lF-21" value="" style="rhombus;strokeColor=light-dark(#000000,#131313);fontColor=light-dark(#000000,#000000);labelBackgroundColor=none;" parent="sOpET0CUh0t1pMRiH7lF-8" vertex="1">
          <mxGeometry x="65" y="723" width="30" height="30" as="geometry" />
        </mxCell>
        <mxCell id="sOpET0CUh0t1pMRiH7lF-22" value="оповещение СБ" style="html=1;align=center;verticalAlign=middle;rounded=1;absoluteArcSize=1;arcSize=10;dashed=0;whiteSpace=wrap;strokeColor=light-dark(#000000,#131313);fontColor=light-dark(#000000,#000000);labelBackgroundColor=none;fillColor=none;" parent="sOpET0CUh0t1pMRiH7lF-8" vertex="1">
          <mxGeometry x="210" y="693" width="140" height="70" as="geometry" />
        </mxCell>
        <mxCell id="sOpET0CUh0t1pMRiH7lF-23" style="edgeStyle=orthogonalEdgeStyle;rounded=0;orthogonalLoop=1;jettySize=auto;html=1;entryX=0.024;entryY=0.637;entryDx=0;entryDy=0;entryPerimeter=0;strokeColor=light-dark(#000000,#131313);fontColor=light-dark(#000000,#000000);labelBackgroundColor=none;" parent="sOpET0CUh0t1pMRiH7lF-8" source="sOpET0CUh0t1pMRiH7lF-21" target="sOpET0CUh0t1pMRiH7lF-22" edge="1">
          <mxGeometry relative="1" as="geometry" />
        </mxCell>
        <mxCell id="sOpET0CUh0t1pMRiH7lF-24" value="выявлено" style="text;html=1;align=center;verticalAlign=middle;resizable=0;points=[];autosize=1;strokeColor=light-dark(#000000,#131313);fillColor=none;fontColor=light-dark(#000000,#000000);labelBackgroundColor=none;" parent="sOpET0CUh0t1pMRiH7lF-8" vertex="1">
          <mxGeometry x="110" y="697" width="80" height="30" as="geometry" />
        </mxCell>
        <mxCell id="sOpET0CUh0t1pMRiH7lF-25" value="Не выявлено" style="text;html=1;align=center;verticalAlign=middle;resizable=0;points=[];autosize=1;strokeColor=light-dark(#000000,#131313);fillColor=none;fontColor=light-dark(#000000,#000000);labelBackgroundColor=none;" parent="sOpET0CUh0t1pMRiH7lF-8" vertex="1">
          <mxGeometry x="-50" y="693" width="100" height="30" as="geometry" />
        </mxCell>
        <mxCell id="ZbwEf78HStX7wTdudCqB-12" style="edgeStyle=orthogonalEdgeStyle;rounded=0;orthogonalLoop=1;jettySize=auto;html=1;exitX=0.238;exitY=0.122;exitDx=0;exitDy=0;exitPerimeter=0;entryX=0.323;entryY=0.001;entryDx=0;entryDy=0;entryPerimeter=0;strokeColor=light-dark(#000000,#131313);fontColor=light-dark(#000000,#000000);labelBackgroundColor=none;" parent="sOpET0CUh0t1pMRiH7lF-8" source="ZbwEf78HStX7wTdudCqB-11" target="sOpET0CUh0t1pMRiH7lF-16" edge="1">
          <mxGeometry relative="1" as="geometry">
            <mxPoint x="205" y="570" as="targetPoint" />
            <Array as="points">
              <mxPoint x="205" y="501" />
              <mxPoint x="205" y="539" />
            </Array>
          </mxGeometry>
        </mxCell>
        <mxCell id="ZbwEf78HStX7wTdudCqB-13" style="edgeStyle=orthogonalEdgeStyle;rounded=0;orthogonalLoop=1;jettySize=auto;html=1;exitX=1.026;exitY=0.831;exitDx=0;exitDy=0;exitPerimeter=0;entryX=0.642;entryY=0.002;entryDx=0;entryDy=0;entryPerimeter=0;strokeColor=light-dark(#000000,#131313);fontColor=light-dark(#000000,#000000);labelBackgroundColor=none;" parent="sOpET0CUh0t1pMRiH7lF-8" source="ZbwEf78HStX7wTdudCqB-11" target="sOpET0CUh0t1pMRiH7lF-18" edge="1">
          <mxGeometry relative="1" as="geometry">
            <mxPoint x="100" y="570" as="targetPoint" />
          </mxGeometry>
        </mxCell>
        <mxCell id="ZbwEf78HStX7wTdudCqB-11" value="" style="html=1;points=[];perimeter=orthogonalPerimeter;fillColor=strokeColor;direction=south;strokeColor=light-dark(#000000,#131313);fontColor=light-dark(#000000,#000000);labelBackgroundColor=none;" parent="sOpET0CUh0t1pMRiH7lF-8" vertex="1">
          <mxGeometry x="75" y="500" width="150" height="5" as="geometry" />
        </mxCell>
        <mxCell id="sOpET0CUh0t1pMRiH7lF-26" style="edgeStyle=orthogonalEdgeStyle;rounded=0;orthogonalLoop=1;jettySize=auto;html=1;entryX=0;entryY=0.5;entryDx=0;entryDy=0;strokeColor=light-dark(#000000,#131313);fontColor=light-dark(#000000,#000000);labelBackgroundColor=none;" parent="sOpET0CUh0t1pMRiH7lF-1" source="sOpET0CUh0t1pMRiH7lF-5" target="sOpET0CUh0t1pMRiH7lF-10" edge="1">
          <mxGeometry relative="1" as="geometry" />
        </mxCell>
        <mxCell id="sOpET0CUh0t1pMRiH7lF-27" style="edgeStyle=orthogonalEdgeStyle;rounded=0;orthogonalLoop=1;jettySize=auto;html=1;entryX=1;entryY=0.5;entryDx=0;entryDy=0;strokeColor=light-dark(#000000,#131313);fontColor=light-dark(#000000,#000000);labelBackgroundColor=none;" parent="sOpET0CUh0t1pMRiH7lF-1" source="sOpET0CUh0t1pMRiH7lF-18" target="sOpET0CUh0t1pMRiH7lF-6" edge="1">
          <mxGeometry relative="1" as="geometry" />
        </mxCell>
        <mxCell id="sOpET0CUh0t1pMRiH7lF-28" style="edgeStyle=orthogonalEdgeStyle;rounded=0;orthogonalLoop=1;jettySize=auto;html=1;entryX=0;entryY=0.5;entryDx=0;entryDy=0;strokeColor=light-dark(#000000,#131313);fontColor=light-dark(#000000,#000000);labelBackgroundColor=none;" parent="sOpET0CUh0t1pMRiH7lF-1" source="sOpET0CUh0t1pMRiH7lF-16" target="sOpET0CUh0t1pMRiH7lF-31" edge="1">
          <mxGeometry relative="1" as="geometry" />
        </mxCell>
        <mxCell id="sOpET0CUh0t1pMRiH7lF-29" style="edgeStyle=orthogonalEdgeStyle;rounded=0;orthogonalLoop=1;jettySize=auto;html=1;entryX=0;entryY=0.5;entryDx=0;entryDy=0;strokeColor=light-dark(#000000,#131313);fontColor=light-dark(#000000,#000000);labelBackgroundColor=none;" parent="sOpET0CUh0t1pMRiH7lF-1" source="sOpET0CUh0t1pMRiH7lF-22" target="sOpET0CUh0t1pMRiH7lF-32" edge="1">
          <mxGeometry relative="1" as="geometry" />
        </mxCell>
        <mxCell id="sOpET0CUh0t1pMRiH7lF-30" value="&lt;font style=&quot;color: light-dark(rgb(0, 0, 0), rgb(0, 0, 0));&quot;&gt;Система контроля доступа&lt;/font&gt;" style="swimlane;startSize=20;html=1;strokeColor=light-dark(#000000,#131313);fillColor=none;" parent="sOpET0CUh0t1pMRiH7lF-1" vertex="1">
          <mxGeometry x="720" y="20" width="370" height="930" as="geometry" />
        </mxCell>
        <mxCell id="sOpET0CUh0t1pMRiH7lF-31" value="направление в указанный коридор" style="html=1;align=center;verticalAlign=middle;rounded=1;absoluteArcSize=1;arcSize=10;dashed=0;whiteSpace=wrap;strokeColor=light-dark(#000000,#131313);fontColor=light-dark(#000000,#000000);labelBackgroundColor=none;fillColor=none;" parent="sOpET0CUh0t1pMRiH7lF-30" vertex="1">
          <mxGeometry x="100" y="573" width="140" height="70" as="geometry" />
        </mxCell>
        <mxCell id="sOpET0CUh0t1pMRiH7lF-32" value="Проверка багажа СБ" style="html=1;align=center;verticalAlign=middle;rounded=1;absoluteArcSize=1;arcSize=10;dashed=0;whiteSpace=wrap;strokeColor=light-dark(#000000,#131313);fontColor=light-dark(#000000,#000000);labelBackgroundColor=none;fillColor=none;" parent="sOpET0CUh0t1pMRiH7lF-30" vertex="1">
          <mxGeometry x="100" y="693" width="140" height="70" as="geometry" />
        </mxCell>
        <mxCell id="C20m0sAJZjNNmGtkcCEJ-2" style="edgeStyle=orthogonalEdgeStyle;rounded=0;orthogonalLoop=1;jettySize=auto;html=1;entryX=0.825;entryY=1.02;entryDx=0;entryDy=0;entryPerimeter=0;strokeColor=light-dark(#000000,#131313);fontColor=light-dark(#000000,#000000);labelBackgroundColor=none;" parent="sOpET0CUh0t1pMRiH7lF-1" source="sOpET0CUh0t1pMRiH7lF-32" target="sOpET0CUh0t1pMRiH7lF-7" edge="1">
          <mxGeometry relative="1" as="geometry">
            <Array as="points">
              <mxPoint x="890" y="810" />
              <mxPoint x="220" y="810" />
            </Array>
          </mxGeometry>
        </mxCell>
      </root>
    </mxGraphModel>
  </diagram>
  <diagram id="rr7BYszzXqVfXodtKHia" name="UML работа системы">
    <mxGraphModel dx="1590" dy="930" grid="1" gridSize="10" guides="1" tooltips="1" connect="1" arrows="1" fold="1" page="1" pageScale="1" pageWidth="1169" pageHeight="827" math="0" shadow="0">
      <root>
        <mxCell id="0" />
        <mxCell id="1" parent="0" />
        <mxCell id="8rboUCR-jCLj9k1HyRVq-59" style="edgeStyle=orthogonalEdgeStyle;rounded=0;orthogonalLoop=1;jettySize=auto;html=1;entryX=0.5;entryY=0;entryDx=0;entryDy=0;" parent="1" source="5JSpnXlzNx3L8MMjELCP-1" target="8rboUCR-jCLj9k1HyRVq-42" edge="1">
          <mxGeometry relative="1" as="geometry" />
        </mxCell>
        <mxCell id="5JSpnXlzNx3L8MMjELCP-1" value="" style="ellipse;fillColor=strokeColor;html=1;" parent="1" vertex="1">
          <mxGeometry x="410" y="170" width="30" height="30" as="geometry" />
        </mxCell>
        <mxCell id="8rboUCR-jCLj9k1HyRVq-9" style="edgeStyle=orthogonalEdgeStyle;rounded=0;orthogonalLoop=1;jettySize=auto;html=1;entryX=0.5;entryY=0;entryDx=0;entryDy=0;" parent="1" source="5JSpnXlzNx3L8MMjELCP-2" target="8rboUCR-jCLj9k1HyRVq-8" edge="1">
          <mxGeometry relative="1" as="geometry" />
        </mxCell>
        <mxCell id="5JSpnXlzNx3L8MMjELCP-2" value="сканирование багажа" style="html=1;align=center;verticalAlign=middle;rounded=1;absoluteArcSize=1;arcSize=10;dashed=0;whiteSpace=wrap;" parent="1" vertex="1">
          <mxGeometry x="355" y="377" width="140" height="60" as="geometry" />
        </mxCell>
        <mxCell id="8rboUCR-jCLj9k1HyRVq-12" style="edgeStyle=orthogonalEdgeStyle;rounded=0;orthogonalLoop=1;jettySize=auto;html=1;entryX=0.5;entryY=0;entryDx=0;entryDy=0;exitX=0.4;exitY=0.12;exitDx=0;exitDy=0;exitPerimeter=0;" parent="1" source="8rboUCR-jCLj9k1HyRVq-1" target="8rboUCR-jCLj9k1HyRVq-6" edge="1">
          <mxGeometry relative="1" as="geometry">
            <mxPoint x="340" y="617" as="sourcePoint" />
          </mxGeometry>
        </mxCell>
        <mxCell id="8rboUCR-jCLj9k1HyRVq-1" value="" style="html=1;points=[];perimeter=orthogonalPerimeter;fillColor=strokeColor;rotation=-90;" parent="1" vertex="1">
          <mxGeometry x="422.5" y="497" width="5" height="225" as="geometry" />
        </mxCell>
        <mxCell id="8rboUCR-jCLj9k1HyRVq-6" value="Визуализация" style="html=1;align=center;verticalAlign=middle;rounded=1;absoluteArcSize=1;arcSize=10;dashed=0;whiteSpace=wrap;" parent="1" vertex="1">
          <mxGeometry x="270" y="677" width="140" height="60" as="geometry" />
        </mxCell>
        <mxCell id="8rboUCR-jCLj9k1HyRVq-15" style="edgeStyle=orthogonalEdgeStyle;rounded=0;orthogonalLoop=1;jettySize=auto;html=1;entryX=0.5;entryY=0;entryDx=0;entryDy=0;" parent="1" source="8rboUCR-jCLj9k1HyRVq-7" edge="1">
          <mxGeometry relative="1" as="geometry">
            <mxPoint x="515" y="797" as="targetPoint" />
            <Array as="points">
              <mxPoint x="515" y="757" />
              <mxPoint x="515" y="757" />
            </Array>
          </mxGeometry>
        </mxCell>
        <mxCell id="8rboUCR-jCLj9k1HyRVq-7" value="Распознавание и классификация" style="html=1;align=center;verticalAlign=middle;rounded=1;absoluteArcSize=1;arcSize=10;dashed=0;whiteSpace=wrap;" parent="1" vertex="1">
          <mxGeometry x="440" y="677" width="140" height="60" as="geometry" />
        </mxCell>
        <mxCell id="8rboUCR-jCLj9k1HyRVq-8" value="Обработка видеопотока, кадрирование" style="html=1;align=center;verticalAlign=middle;rounded=1;absoluteArcSize=1;arcSize=10;dashed=0;whiteSpace=wrap;" parent="1" vertex="1">
          <mxGeometry x="355" y="497" width="140" height="60" as="geometry" />
        </mxCell>
        <mxCell id="8rboUCR-jCLj9k1HyRVq-11" style="edgeStyle=orthogonalEdgeStyle;rounded=0;orthogonalLoop=1;jettySize=auto;html=1;entryX=0.629;entryY=0.5;entryDx=0;entryDy=0;entryPerimeter=0;" parent="1" source="8rboUCR-jCLj9k1HyRVq-8" target="8rboUCR-jCLj9k1HyRVq-1" edge="1">
          <mxGeometry relative="1" as="geometry" />
        </mxCell>
        <mxCell id="8rboUCR-jCLj9k1HyRVq-13" style="edgeStyle=orthogonalEdgeStyle;rounded=0;orthogonalLoop=1;jettySize=auto;html=1;entryX=0.5;entryY=0;entryDx=0;entryDy=0;exitX=-0.229;exitY=0.877;exitDx=0;exitDy=0;exitPerimeter=0;" parent="1" source="8rboUCR-jCLj9k1HyRVq-1" target="8rboUCR-jCLj9k1HyRVq-7" edge="1">
          <mxGeometry relative="1" as="geometry" />
        </mxCell>
        <mxCell id="8rboUCR-jCLj9k1HyRVq-61" style="edgeStyle=orthogonalEdgeStyle;rounded=0;orthogonalLoop=1;jettySize=auto;html=1;entryX=0.5;entryY=0;entryDx=0;entryDy=0;" parent="1" source="8rboUCR-jCLj9k1HyRVq-17" target="8rboUCR-jCLj9k1HyRVq-18" edge="1">
          <mxGeometry relative="1" as="geometry" />
        </mxCell>
        <mxCell id="8rboUCR-jCLj9k1HyRVq-17" value="Информирование о результатах распознавания" style="html=1;align=center;verticalAlign=middle;rounded=1;absoluteArcSize=1;arcSize=10;dashed=0;whiteSpace=wrap;" parent="1" vertex="1">
          <mxGeometry x="270" y="860" width="140" height="60" as="geometry" />
        </mxCell>
        <mxCell id="8rboUCR-jCLj9k1HyRVq-63" style="edgeStyle=orthogonalEdgeStyle;rounded=0;orthogonalLoop=1;jettySize=auto;html=1;" parent="1" source="8rboUCR-jCLj9k1HyRVq-18" target="8rboUCR-jCLj9k1HyRVq-62" edge="1">
          <mxGeometry relative="1" as="geometry">
            <mxPoint x="340" y="1100" as="targetPoint" />
          </mxGeometry>
        </mxCell>
        <mxCell id="8rboUCR-jCLj9k1HyRVq-18" value="ожидание подтверждения оператором" style="html=1;align=center;verticalAlign=middle;rounded=1;absoluteArcSize=1;arcSize=10;dashed=0;whiteSpace=wrap;" parent="1" vertex="1">
          <mxGeometry x="270" y="975" width="140" height="60" as="geometry" />
        </mxCell>
        <mxCell id="8rboUCR-jCLj9k1HyRVq-40" value="" style="rhombus;" parent="1" vertex="1">
          <mxGeometry x="500" y="797" width="30" height="30" as="geometry" />
        </mxCell>
        <mxCell id="8rboUCR-jCLj9k1HyRVq-45" style="edgeStyle=orthogonalEdgeStyle;rounded=0;orthogonalLoop=1;jettySize=auto;html=1;entryX=0.5;entryY=0;entryDx=0;entryDy=0;" parent="1" source="8rboUCR-jCLj9k1HyRVq-42" target="5JSpnXlzNx3L8MMjELCP-2" edge="1">
          <mxGeometry relative="1" as="geometry">
            <mxPoint x="425" y="370" as="targetPoint" />
          </mxGeometry>
        </mxCell>
        <mxCell id="8rboUCR-jCLj9k1HyRVq-42" value="Запуск системы" style="html=1;align=center;verticalAlign=middle;rounded=1;absoluteArcSize=1;arcSize=10;dashed=0;whiteSpace=wrap;" parent="1" vertex="1">
          <mxGeometry x="355" y="270" width="140" height="60" as="geometry" />
        </mxCell>
        <mxCell id="8rboUCR-jCLj9k1HyRVq-47" style="edgeStyle=orthogonalEdgeStyle;rounded=0;orthogonalLoop=1;jettySize=auto;html=1;entryX=1.114;entryY=0.458;entryDx=0;entryDy=0;entryPerimeter=0;" parent="1" source="8rboUCR-jCLj9k1HyRVq-40" edge="1">
          <mxGeometry relative="1" as="geometry">
            <mxPoint x="335.54999999999995" y="859.4300000000001" as="targetPoint" />
          </mxGeometry>
        </mxCell>
        <mxCell id="8rboUCR-jCLj9k1HyRVq-48" value="не выявлено" style="text;html=1;align=center;verticalAlign=middle;resizable=0;points=[];autosize=1;strokeColor=none;fillColor=none;" parent="1" vertex="1">
          <mxGeometry x="395" y="778" width="90" height="30" as="geometry" />
        </mxCell>
        <mxCell id="8rboUCR-jCLj9k1HyRVq-50" style="edgeStyle=orthogonalEdgeStyle;rounded=0;orthogonalLoop=1;jettySize=auto;html=1;entryX=0.5;entryY=0;entryDx=0;entryDy=0;exitX=0.286;exitY=0.119;exitDx=0;exitDy=0;exitPerimeter=0;" parent="1" source="8rboUCR-jCLj9k1HyRVq-52" target="8rboUCR-jCLj9k1HyRVq-53" edge="1">
          <mxGeometry relative="1" as="geometry" />
        </mxCell>
        <mxCell id="8rboUCR-jCLj9k1HyRVq-51" style="edgeStyle=orthogonalEdgeStyle;rounded=0;orthogonalLoop=1;jettySize=auto;html=1;entryX=0.5;entryY=0;entryDx=0;entryDy=0;exitX=0.743;exitY=0.876;exitDx=0;exitDy=0;exitPerimeter=0;" parent="1" source="8rboUCR-jCLj9k1HyRVq-52" target="8rboUCR-jCLj9k1HyRVq-54" edge="1">
          <mxGeometry relative="1" as="geometry" />
        </mxCell>
        <mxCell id="8rboUCR-jCLj9k1HyRVq-52" value="" style="html=1;points=[];perimeter=orthogonalPerimeter;fillColor=strokeColor;rotation=-90;" parent="1" vertex="1">
          <mxGeometry x="722.5" y="760" width="5" height="225" as="geometry" />
        </mxCell>
        <mxCell id="8rboUCR-jCLj9k1HyRVq-53" value="Информирование о результатах распознавания СБ и Оператора" style="html=1;align=center;verticalAlign=middle;rounded=1;absoluteArcSize=1;arcSize=10;dashed=0;whiteSpace=wrap;" parent="1" vertex="1">
          <mxGeometry x="570" y="930" width="140" height="60" as="geometry" />
        </mxCell>
        <mxCell id="8rboUCR-jCLj9k1HyRVq-76" style="edgeStyle=orthogonalEdgeStyle;rounded=0;orthogonalLoop=1;jettySize=auto;html=1;entryX=0.5;entryY=0;entryDx=0;entryDy=0;" parent="1" source="8rboUCR-jCLj9k1HyRVq-54" target="8rboUCR-jCLj9k1HyRVq-71" edge="1">
          <mxGeometry relative="1" as="geometry" />
        </mxCell>
        <mxCell id="8rboUCR-jCLj9k1HyRVq-54" value="Направление в соответствующий кодидор" style="html=1;align=center;verticalAlign=middle;rounded=1;absoluteArcSize=1;arcSize=10;dashed=0;whiteSpace=wrap;" parent="1" vertex="1">
          <mxGeometry x="740" y="930" width="140" height="60" as="geometry" />
        </mxCell>
        <mxCell id="8rboUCR-jCLj9k1HyRVq-60" style="edgeStyle=orthogonalEdgeStyle;rounded=0;orthogonalLoop=1;jettySize=auto;html=1;exitX=0;exitY=1;exitDx=0;exitDy=0;entryX=0.5;entryY=1;entryDx=0;entryDy=0;" parent="1" source="5JSpnXlzNx3L8MMjELCP-1" target="5JSpnXlzNx3L8MMjELCP-1" edge="1">
          <mxGeometry relative="1" as="geometry" />
        </mxCell>
        <mxCell id="8rboUCR-jCLj9k1HyRVq-67" style="edgeStyle=orthogonalEdgeStyle;rounded=0;orthogonalLoop=1;jettySize=auto;html=1;entryX=0.5;entryY=0;entryDx=0;entryDy=0;" parent="1" source="8rboUCR-jCLj9k1HyRVq-62" target="8rboUCR-jCLj9k1HyRVq-66" edge="1">
          <mxGeometry relative="1" as="geometry" />
        </mxCell>
        <mxCell id="8rboUCR-jCLj9k1HyRVq-62" value="" style="rhombus;" parent="1" vertex="1">
          <mxGeometry x="325" y="1100" width="30" height="30" as="geometry" />
        </mxCell>
        <mxCell id="8rboUCR-jCLj9k1HyRVq-73" style="edgeStyle=orthogonalEdgeStyle;rounded=0;orthogonalLoop=1;jettySize=auto;html=1;entryX=0.5;entryY=0;entryDx=0;entryDy=0;" parent="1" source="8rboUCR-jCLj9k1HyRVq-66" target="8rboUCR-jCLj9k1HyRVq-72" edge="1">
          <mxGeometry relative="1" as="geometry" />
        </mxCell>
        <mxCell id="8rboUCR-jCLj9k1HyRVq-66" value="направление в зеленый коридор" style="html=1;align=center;verticalAlign=middle;rounded=1;absoluteArcSize=1;arcSize=10;dashed=0;whiteSpace=wrap;" parent="1" vertex="1">
          <mxGeometry x="270" y="1200" width="140" height="60" as="geometry" />
        </mxCell>
        <mxCell id="8rboUCR-jCLj9k1HyRVq-68" value="подтверждение&amp;nbsp;&lt;div&gt;получено&lt;/div&gt;" style="text;html=1;align=center;verticalAlign=middle;resizable=0;points=[];autosize=1;strokeColor=none;fillColor=none;" parent="1" vertex="1">
          <mxGeometry x="230" y="1150" width="110" height="40" as="geometry" />
        </mxCell>
        <mxCell id="8rboUCR-jCLj9k1HyRVq-69" style="edgeStyle=orthogonalEdgeStyle;rounded=0;orthogonalLoop=1;jettySize=auto;html=1;entryX=1.677;entryY=0.558;entryDx=0;entryDy=0;entryPerimeter=0;" parent="1" source="8rboUCR-jCLj9k1HyRVq-40" target="8rboUCR-jCLj9k1HyRVq-52" edge="1">
          <mxGeometry relative="1" as="geometry" />
        </mxCell>
        <mxCell id="8rboUCR-jCLj9k1HyRVq-70" value="выявлено" style="text;html=1;align=center;verticalAlign=middle;resizable=0;points=[];autosize=1;strokeColor=none;fillColor=none;" parent="1" vertex="1">
          <mxGeometry x="560" y="778" width="80" height="30" as="geometry" />
        </mxCell>
        <mxCell id="8rboUCR-jCLj9k1HyRVq-77" style="edgeStyle=orthogonalEdgeStyle;rounded=0;orthogonalLoop=1;jettySize=auto;html=1;entryX=1;entryY=0.5;entryDx=0;entryDy=0;" parent="1" source="8rboUCR-jCLj9k1HyRVq-71" target="8rboUCR-jCLj9k1HyRVq-72" edge="1">
          <mxGeometry relative="1" as="geometry">
            <Array as="points">
              <mxPoint x="810" y="1360" />
            </Array>
          </mxGeometry>
        </mxCell>
        <mxCell id="8rboUCR-jCLj9k1HyRVq-71" value="проверка багажа СБ" style="html=1;align=center;verticalAlign=middle;rounded=1;absoluteArcSize=1;arcSize=10;dashed=0;whiteSpace=wrap;" parent="1" vertex="1">
          <mxGeometry x="740" y="1050" width="140" height="60" as="geometry" />
        </mxCell>
        <mxCell id="8rboUCR-jCLj9k1HyRVq-75" style="edgeStyle=orthogonalEdgeStyle;rounded=0;orthogonalLoop=1;jettySize=auto;html=1;entryX=0.5;entryY=0;entryDx=0;entryDy=0;" parent="1" source="8rboUCR-jCLj9k1HyRVq-72" target="8rboUCR-jCLj9k1HyRVq-74" edge="1">
          <mxGeometry relative="1" as="geometry" />
        </mxCell>
        <mxCell id="8rboUCR-jCLj9k1HyRVq-72" value="сохранение данных о проверке" style="html=1;align=center;verticalAlign=middle;rounded=1;absoluteArcSize=1;arcSize=10;dashed=0;whiteSpace=wrap;" parent="1" vertex="1">
          <mxGeometry x="270" y="1330" width="140" height="60" as="geometry" />
        </mxCell>
        <mxCell id="8rboUCR-jCLj9k1HyRVq-74" value="" style="ellipse;html=1;shape=endState;fillColor=strokeColor;" parent="1" vertex="1">
          <mxGeometry x="325" y="1460" width="30" height="30" as="geometry" />
        </mxCell>
        <mxCell id="8rboUCR-jCLj9k1HyRVq-78" style="edgeStyle=orthogonalEdgeStyle;rounded=0;orthogonalLoop=1;jettySize=auto;html=1;entryX=1.376;entryY=0.268;entryDx=0;entryDy=0;entryPerimeter=0;" parent="1" source="8rboUCR-jCLj9k1HyRVq-62" target="8rboUCR-jCLj9k1HyRVq-52" edge="1">
          <mxGeometry relative="1" as="geometry">
            <Array as="points">
              <mxPoint x="470" y="1115" />
              <mxPoint x="470" y="850" />
              <mxPoint x="673" y="850" />
            </Array>
          </mxGeometry>
        </mxCell>
        <mxCell id="8rboUCR-jCLj9k1HyRVq-79" value="подтверждение не получено,&amp;nbsp;&lt;div&gt;есть сомнения оператора&lt;/div&gt;" style="text;html=1;align=center;verticalAlign=middle;resizable=0;points=[];autosize=1;strokeColor=none;fillColor=none;" parent="1" vertex="1">
          <mxGeometry x="380" y="1113" width="190" height="40" as="geometry" />
        </mxCell>
        <mxCell id="cw5T5O-n9o06sVTr4Hx5-1" value="UML Диаграмма деятельности" style="text;html=1;align=center;verticalAlign=middle;resizable=0;points=[];autosize=1;strokeColor=none;fillColor=none;" vertex="1" parent="1">
          <mxGeometry x="115" y="78" width="190" height="30" as="geometry" />
        </mxCell>
      </root>
    </mxGraphModel>
  </diagram>
  <diagram id="KzoiF-Co4PaFmMimCBxl" name="UML сбой системы">
    <mxGraphModel dx="1735" dy="1015" grid="1" gridSize="10" guides="1" tooltips="1" connect="1" arrows="1" fold="1" page="1" pageScale="1" pageWidth="1169" pageHeight="827" math="0" shadow="0">
      <root>
        <mxCell id="0" />
        <mxCell id="1" parent="0" />
        <mxCell id="8PyIgW7lQZM39RJWDCPo-1" style="edgeStyle=orthogonalEdgeStyle;rounded=0;orthogonalLoop=1;jettySize=auto;html=1;entryX=0.5;entryY=0;entryDx=0;entryDy=0;" parent="1" source="8PyIgW7lQZM39RJWDCPo-2" target="8PyIgW7lQZM39RJWDCPo-13" edge="1">
          <mxGeometry relative="1" as="geometry" />
        </mxCell>
        <mxCell id="8PyIgW7lQZM39RJWDCPo-2" value="" style="ellipse;fillColor=strokeColor;html=1;" parent="1" vertex="1">
          <mxGeometry x="670" y="230" width="30" height="30" as="geometry" />
        </mxCell>
        <mxCell id="8PyIgW7lQZM39RJWDCPo-17" style="edgeStyle=orthogonalEdgeStyle;rounded=0;orthogonalLoop=1;jettySize=auto;html=1;entryX=0.5;entryY=0;entryDx=0;entryDy=0;" parent="1" source="8PyIgW7lQZM39RJWDCPo-4" target="8PyIgW7lQZM39RJWDCPo-15" edge="1">
          <mxGeometry relative="1" as="geometry" />
        </mxCell>
        <mxCell id="8PyIgW7lQZM39RJWDCPo-4" value="сканирование багажа" style="html=1;align=center;verticalAlign=middle;rounded=1;absoluteArcSize=1;arcSize=10;dashed=0;whiteSpace=wrap;" parent="1" vertex="1">
          <mxGeometry x="615" y="510" width="140" height="60" as="geometry" />
        </mxCell>
        <mxCell id="8PyIgW7lQZM39RJWDCPo-5" style="edgeStyle=orthogonalEdgeStyle;rounded=0;orthogonalLoop=1;jettySize=auto;html=1;entryX=0.5;entryY=0;entryDx=0;entryDy=0;exitX=0.4;exitY=0.12;exitDx=0;exitDy=0;exitPerimeter=0;" parent="1" source="8PyIgW7lQZM39RJWDCPo-6" target="8PyIgW7lQZM39RJWDCPo-7" edge="1">
          <mxGeometry relative="1" as="geometry">
            <mxPoint x="600" y="823" as="sourcePoint" />
          </mxGeometry>
        </mxCell>
        <mxCell id="8PyIgW7lQZM39RJWDCPo-6" value="" style="html=1;points=[];perimeter=orthogonalPerimeter;fillColor=strokeColor;rotation=-90;" parent="1" vertex="1">
          <mxGeometry x="682.5" y="703" width="5" height="225" as="geometry" />
        </mxCell>
        <mxCell id="8PyIgW7lQZM39RJWDCPo-7" value="Визуализация" style="html=1;align=center;verticalAlign=middle;rounded=1;absoluteArcSize=1;arcSize=10;dashed=0;whiteSpace=wrap;" parent="1" vertex="1">
          <mxGeometry x="530" y="883" width="140" height="60" as="geometry" />
        </mxCell>
        <mxCell id="qNdCyHQnCkUNs1Sh2Vsn-25" style="edgeStyle=orthogonalEdgeStyle;rounded=0;orthogonalLoop=1;jettySize=auto;html=1;entryX=0.5;entryY=0;entryDx=0;entryDy=0;" parent="1" source="8PyIgW7lQZM39RJWDCPo-8" target="qNdCyHQnCkUNs1Sh2Vsn-24" edge="1">
          <mxGeometry relative="1" as="geometry">
            <mxPoint x="770" y="993" as="targetPoint" />
          </mxGeometry>
        </mxCell>
        <mxCell id="8PyIgW7lQZM39RJWDCPo-8" value="Распознавание и классификация" style="html=1;align=center;verticalAlign=middle;rounded=1;absoluteArcSize=1;arcSize=10;dashed=0;whiteSpace=wrap;" parent="1" vertex="1">
          <mxGeometry x="700" y="883" width="140" height="60" as="geometry" />
        </mxCell>
        <mxCell id="8PyIgW7lQZM39RJWDCPo-9" value="Обработка видеопотока, кадрирование" style="html=1;align=center;verticalAlign=middle;rounded=1;absoluteArcSize=1;arcSize=10;dashed=0;whiteSpace=wrap;" parent="1" vertex="1">
          <mxGeometry x="615" y="703" width="140" height="60" as="geometry" />
        </mxCell>
        <mxCell id="8PyIgW7lQZM39RJWDCPo-10" style="edgeStyle=orthogonalEdgeStyle;rounded=0;orthogonalLoop=1;jettySize=auto;html=1;entryX=0.629;entryY=0.5;entryDx=0;entryDy=0;entryPerimeter=0;" parent="1" source="8PyIgW7lQZM39RJWDCPo-9" target="8PyIgW7lQZM39RJWDCPo-6" edge="1">
          <mxGeometry relative="1" as="geometry" />
        </mxCell>
        <mxCell id="8PyIgW7lQZM39RJWDCPo-11" style="edgeStyle=orthogonalEdgeStyle;rounded=0;orthogonalLoop=1;jettySize=auto;html=1;entryX=0.5;entryY=0;entryDx=0;entryDy=0;exitX=-0.229;exitY=0.877;exitDx=0;exitDy=0;exitPerimeter=0;" parent="1" source="8PyIgW7lQZM39RJWDCPo-6" target="8PyIgW7lQZM39RJWDCPo-8" edge="1">
          <mxGeometry relative="1" as="geometry" />
        </mxCell>
        <mxCell id="ghwYySfjZZgK7fTL0Agr-5" style="edgeStyle=orthogonalEdgeStyle;rounded=0;orthogonalLoop=1;jettySize=auto;html=1;entryX=0.5;entryY=0;entryDx=0;entryDy=0;" parent="1" source="8PyIgW7lQZM39RJWDCPo-13" target="ghwYySfjZZgK7fTL0Agr-4" edge="1">
          <mxGeometry relative="1" as="geometry" />
        </mxCell>
        <mxCell id="8PyIgW7lQZM39RJWDCPo-13" value="Запуск системы" style="html=1;align=center;verticalAlign=middle;rounded=1;absoluteArcSize=1;arcSize=10;dashed=0;whiteSpace=wrap;" parent="1" vertex="1">
          <mxGeometry x="615" y="330" width="140" height="60" as="geometry" />
        </mxCell>
        <mxCell id="8PyIgW7lQZM39RJWDCPo-14" style="edgeStyle=orthogonalEdgeStyle;rounded=0;orthogonalLoop=1;jettySize=auto;html=1;exitX=0;exitY=1;exitDx=0;exitDy=0;entryX=0.5;entryY=1;entryDx=0;entryDy=0;" parent="1" source="8PyIgW7lQZM39RJWDCPo-2" target="8PyIgW7lQZM39RJWDCPo-2" edge="1">
          <mxGeometry relative="1" as="geometry" />
        </mxCell>
        <mxCell id="8PyIgW7lQZM39RJWDCPo-18" style="edgeStyle=orthogonalEdgeStyle;rounded=0;orthogonalLoop=1;jettySize=auto;html=1;entryX=0.5;entryY=0;entryDx=0;entryDy=0;" parent="1" source="8PyIgW7lQZM39RJWDCPo-15" target="8PyIgW7lQZM39RJWDCPo-9" edge="1">
          <mxGeometry relative="1" as="geometry" />
        </mxCell>
        <mxCell id="8PyIgW7lQZM39RJWDCPo-20" style="edgeStyle=orthogonalEdgeStyle;rounded=0;orthogonalLoop=1;jettySize=auto;html=1;entryX=0.7;entryY=0.507;entryDx=0;entryDy=0;entryPerimeter=0;" parent="1" source="8PyIgW7lQZM39RJWDCPo-15" target="8PyIgW7lQZM39RJWDCPo-22" edge="1">
          <mxGeometry relative="1" as="geometry">
            <mxPoint x="940" y="638" as="targetPoint" />
          </mxGeometry>
        </mxCell>
        <mxCell id="8PyIgW7lQZM39RJWDCPo-15" value="" style="rhombus;" parent="1" vertex="1">
          <mxGeometry x="670" y="623" width="30" height="30" as="geometry" />
        </mxCell>
        <mxCell id="8PyIgW7lQZM39RJWDCPo-19" value="сканирование" style="text;html=1;align=center;verticalAlign=middle;resizable=0;points=[];autosize=1;strokeColor=none;fillColor=none;" parent="1" vertex="1">
          <mxGeometry x="570" y="661.5" width="100" height="30" as="geometry" />
        </mxCell>
        <mxCell id="8PyIgW7lQZM39RJWDCPo-21" value="неисправность сканирования" style="text;html=1;align=center;verticalAlign=middle;resizable=0;points=[];autosize=1;strokeColor=none;fillColor=none;" parent="1" vertex="1">
          <mxGeometry x="682.5" y="601" width="190" height="30" as="geometry" />
        </mxCell>
        <mxCell id="qNdCyHQnCkUNs1Sh2Vsn-4" style="edgeStyle=orthogonalEdgeStyle;rounded=0;orthogonalLoop=1;jettySize=auto;html=1;entryX=0.5;entryY=0;entryDx=0;entryDy=0;exitX=-0.3;exitY=0.841;exitDx=0;exitDy=0;exitPerimeter=0;" parent="1" source="8PyIgW7lQZM39RJWDCPo-22" target="8PyIgW7lQZM39RJWDCPo-24" edge="1">
          <mxGeometry relative="1" as="geometry" />
        </mxCell>
        <mxCell id="8PyIgW7lQZM39RJWDCPo-22" value="" style="html=1;points=[];perimeter=orthogonalPerimeter;fillColor=strokeColor;rotation=-90;" parent="1" vertex="1">
          <mxGeometry x="1180" y="575.5" width="5" height="315" as="geometry" />
        </mxCell>
        <mxCell id="qNdCyHQnCkUNs1Sh2Vsn-7" style="edgeStyle=orthogonalEdgeStyle;rounded=0;orthogonalLoop=1;jettySize=auto;html=1;entryX=0.5;entryY=0;entryDx=0;entryDy=0;" parent="1" source="8PyIgW7lQZM39RJWDCPo-23" target="qNdCyHQnCkUNs1Sh2Vsn-6" edge="1">
          <mxGeometry relative="1" as="geometry" />
        </mxCell>
        <mxCell id="8PyIgW7lQZM39RJWDCPo-23" value="Информирование Оператора о неисправности и СБ о проверке" style="html=1;align=center;verticalAlign=middle;rounded=1;absoluteArcSize=1;arcSize=10;dashed=0;whiteSpace=wrap;" parent="1" vertex="1">
          <mxGeometry x="1030" y="783" width="140" height="60" as="geometry" />
        </mxCell>
        <mxCell id="qNdCyHQnCkUNs1Sh2Vsn-5" style="edgeStyle=orthogonalEdgeStyle;rounded=0;orthogonalLoop=1;jettySize=auto;html=1;entryX=0.5;entryY=0;entryDx=0;entryDy=0;" parent="1" source="8PyIgW7lQZM39RJWDCPo-24" target="qNdCyHQnCkUNs1Sh2Vsn-1" edge="1">
          <mxGeometry relative="1" as="geometry" />
        </mxCell>
        <mxCell id="8PyIgW7lQZM39RJWDCPo-24" value="Логирование события" style="html=1;align=center;verticalAlign=middle;rounded=1;absoluteArcSize=1;arcSize=10;dashed=0;whiteSpace=wrap;" parent="1" vertex="1">
          <mxGeometry x="1220" y="783" width="140" height="60" as="geometry" />
        </mxCell>
        <mxCell id="qNdCyHQnCkUNs1Sh2Vsn-9" style="edgeStyle=orthogonalEdgeStyle;rounded=0;orthogonalLoop=1;jettySize=auto;html=1;entryX=0.5;entryY=0;entryDx=0;entryDy=0;" parent="1" source="qNdCyHQnCkUNs1Sh2Vsn-1" target="qNdCyHQnCkUNs1Sh2Vsn-8" edge="1">
          <mxGeometry relative="1" as="geometry" />
        </mxCell>
        <mxCell id="qNdCyHQnCkUNs1Sh2Vsn-1" value="Перезапуск системы" style="html=1;align=center;verticalAlign=middle;rounded=1;absoluteArcSize=1;arcSize=10;dashed=0;whiteSpace=wrap;" parent="1" vertex="1">
          <mxGeometry x="1220" y="890.5" width="140" height="60" as="geometry" />
        </mxCell>
        <mxCell id="qNdCyHQnCkUNs1Sh2Vsn-2" style="edgeStyle=orthogonalEdgeStyle;rounded=0;orthogonalLoop=1;jettySize=auto;html=1;entryX=0.454;entryY=0.033;entryDx=0;entryDy=0;entryPerimeter=0;exitX=0.259;exitY=0.217;exitDx=0;exitDy=0;exitPerimeter=0;" parent="1" source="8PyIgW7lQZM39RJWDCPo-22" target="8PyIgW7lQZM39RJWDCPo-23" edge="1">
          <mxGeometry relative="1" as="geometry" />
        </mxCell>
        <mxCell id="qNdCyHQnCkUNs1Sh2Vsn-6" value="направление багажа в красный коридор на ручную проверку" style="html=1;align=center;verticalAlign=middle;rounded=1;absoluteArcSize=1;arcSize=10;dashed=0;whiteSpace=wrap;" parent="1" vertex="1">
          <mxGeometry x="1030" y="890.5" width="140" height="60" as="geometry" />
        </mxCell>
        <mxCell id="ghwYySfjZZgK7fTL0Agr-10" style="edgeStyle=orthogonalEdgeStyle;rounded=0;orthogonalLoop=1;jettySize=auto;html=1;entryX=1;entryY=0.75;entryDx=0;entryDy=0;" parent="1" source="qNdCyHQnCkUNs1Sh2Vsn-8" target="8PyIgW7lQZM39RJWDCPo-13" edge="1">
          <mxGeometry relative="1" as="geometry">
            <Array as="points">
              <mxPoint x="1450" y="1008" />
              <mxPoint x="1450" y="375" />
            </Array>
          </mxGeometry>
        </mxCell>
        <mxCell id="qNdCyHQnCkUNs1Sh2Vsn-8" value="" style="rhombus;" parent="1" vertex="1">
          <mxGeometry x="1275" y="993" width="30" height="30" as="geometry" />
        </mxCell>
        <mxCell id="qNdCyHQnCkUNs1Sh2Vsn-11" value="система восстановлена" style="text;html=1;align=center;verticalAlign=middle;resizable=0;points=[];autosize=1;strokeColor=none;fillColor=none;" parent="1" vertex="1">
          <mxGeometry x="1330" y="1013" width="160" height="30" as="geometry" />
        </mxCell>
        <mxCell id="qNdCyHQnCkUNs1Sh2Vsn-13" value="система не восстановлена" style="text;html=1;align=center;verticalAlign=middle;resizable=0;points=[];autosize=1;strokeColor=none;fillColor=none;" parent="1" vertex="1">
          <mxGeometry x="1120" y="1043" width="170" height="30" as="geometry" />
        </mxCell>
        <mxCell id="qNdCyHQnCkUNs1Sh2Vsn-18" style="edgeStyle=orthogonalEdgeStyle;rounded=0;orthogonalLoop=1;jettySize=auto;html=1;entryX=0.5;entryY=0;entryDx=0;entryDy=0;exitX=-0.2;exitY=0.811;exitDx=0;exitDy=0;exitPerimeter=0;" parent="1" source="qNdCyHQnCkUNs1Sh2Vsn-14" target="qNdCyHQnCkUNs1Sh2Vsn-16" edge="1">
          <mxGeometry relative="1" as="geometry" />
        </mxCell>
        <mxCell id="qNdCyHQnCkUNs1Sh2Vsn-14" value="" style="html=1;points=[];perimeter=orthogonalPerimeter;fillColor=strokeColor;rotation=-90;" parent="1" vertex="1">
          <mxGeometry x="1290" y="943" width="5" height="315" as="geometry" />
        </mxCell>
        <mxCell id="qNdCyHQnCkUNs1Sh2Vsn-15" style="edgeStyle=orthogonalEdgeStyle;rounded=0;orthogonalLoop=1;jettySize=auto;html=1;entryX=0.935;entryY=0.49;entryDx=0;entryDy=0;entryPerimeter=0;" parent="1" source="qNdCyHQnCkUNs1Sh2Vsn-8" target="qNdCyHQnCkUNs1Sh2Vsn-14" edge="1">
          <mxGeometry relative="1" as="geometry" />
        </mxCell>
        <mxCell id="ghwYySfjZZgK7fTL0Agr-11" style="edgeStyle=orthogonalEdgeStyle;rounded=0;orthogonalLoop=1;jettySize=auto;html=1;entryX=1;entryY=0.25;entryDx=0;entryDy=0;" parent="1" source="qNdCyHQnCkUNs1Sh2Vsn-16" target="8PyIgW7lQZM39RJWDCPo-13" edge="1">
          <mxGeometry relative="1" as="geometry">
            <Array as="points">
              <mxPoint x="1530" y="1193" />
              <mxPoint x="1530" y="345" />
            </Array>
          </mxGeometry>
        </mxCell>
        <mxCell id="qNdCyHQnCkUNs1Sh2Vsn-16" value="подключение резервного сервера" style="html=1;align=center;verticalAlign=middle;rounded=1;absoluteArcSize=1;arcSize=10;dashed=0;whiteSpace=wrap;" parent="1" vertex="1">
          <mxGeometry x="1320" y="1163" width="140" height="60" as="geometry" />
        </mxCell>
        <mxCell id="qNdCyHQnCkUNs1Sh2Vsn-19" value="Информирование администратора" style="html=1;align=center;verticalAlign=middle;rounded=1;absoluteArcSize=1;arcSize=10;dashed=0;whiteSpace=wrap;" parent="1" vertex="1">
          <mxGeometry x="1130" y="1163" width="140" height="60" as="geometry" />
        </mxCell>
        <mxCell id="ghwYySfjZZgK7fTL0Agr-1" style="edgeStyle=orthogonalEdgeStyle;rounded=0;orthogonalLoop=1;jettySize=auto;html=1;entryX=1;entryY=0.5;entryDx=0;entryDy=0;" parent="1" source="qNdCyHQnCkUNs1Sh2Vsn-20" target="qNdCyHQnCkUNs1Sh2Vsn-31" edge="1">
          <mxGeometry relative="1" as="geometry" />
        </mxCell>
        <mxCell id="qNdCyHQnCkUNs1Sh2Vsn-20" value="восстановление сервера" style="html=1;align=center;verticalAlign=middle;rounded=1;absoluteArcSize=1;arcSize=10;dashed=0;whiteSpace=wrap;" parent="1" vertex="1">
          <mxGeometry x="1135" y="1293" width="140" height="60" as="geometry" />
        </mxCell>
        <mxCell id="qNdCyHQnCkUNs1Sh2Vsn-21" style="edgeStyle=orthogonalEdgeStyle;rounded=0;orthogonalLoop=1;jettySize=auto;html=1;entryX=0.429;entryY=0;entryDx=0;entryDy=0;entryPerimeter=0;" parent="1" target="qNdCyHQnCkUNs1Sh2Vsn-19" edge="1">
          <mxGeometry relative="1" as="geometry">
            <mxPoint x="1190" y="1102" as="sourcePoint" />
          </mxGeometry>
        </mxCell>
        <mxCell id="qNdCyHQnCkUNs1Sh2Vsn-22" style="edgeStyle=orthogonalEdgeStyle;rounded=0;orthogonalLoop=1;jettySize=auto;html=1;entryX=0.462;entryY=-0.013;entryDx=0;entryDy=0;entryPerimeter=0;" parent="1" source="qNdCyHQnCkUNs1Sh2Vsn-19" target="qNdCyHQnCkUNs1Sh2Vsn-20" edge="1">
          <mxGeometry relative="1" as="geometry" />
        </mxCell>
        <mxCell id="qNdCyHQnCkUNs1Sh2Vsn-32" style="edgeStyle=orthogonalEdgeStyle;rounded=0;orthogonalLoop=1;jettySize=auto;html=1;entryX=0.5;entryY=0;entryDx=0;entryDy=0;" parent="1" source="qNdCyHQnCkUNs1Sh2Vsn-23" target="qNdCyHQnCkUNs1Sh2Vsn-31" edge="1">
          <mxGeometry relative="1" as="geometry" />
        </mxCell>
        <mxCell id="qNdCyHQnCkUNs1Sh2Vsn-23" value="отработка системы по сценарию выявления или не выявления запрещенных объектов" style="html=1;align=center;verticalAlign=middle;rounded=1;absoluteArcSize=1;arcSize=10;dashed=0;whiteSpace=wrap;" parent="1" vertex="1">
          <mxGeometry x="700" y="1113" width="140" height="60" as="geometry" />
        </mxCell>
        <mxCell id="qNdCyHQnCkUNs1Sh2Vsn-30" style="edgeStyle=orthogonalEdgeStyle;rounded=0;orthogonalLoop=1;jettySize=auto;html=1;entryX=0.5;entryY=0;entryDx=0;entryDy=0;" parent="1" source="qNdCyHQnCkUNs1Sh2Vsn-24" target="qNdCyHQnCkUNs1Sh2Vsn-23" edge="1">
          <mxGeometry relative="1" as="geometry">
            <mxPoint x="770" y="1093" as="targetPoint" />
          </mxGeometry>
        </mxCell>
        <mxCell id="qNdCyHQnCkUNs1Sh2Vsn-24" value="" style="rhombus;" parent="1" vertex="1">
          <mxGeometry x="755" y="1003" width="30" height="30" as="geometry" />
        </mxCell>
        <mxCell id="qNdCyHQnCkUNs1Sh2Vsn-28" style="edgeStyle=orthogonalEdgeStyle;rounded=0;orthogonalLoop=1;jettySize=auto;html=1;entryX=0.994;entryY=0.34;entryDx=0;entryDy=0;entryPerimeter=0;" parent="1" source="qNdCyHQnCkUNs1Sh2Vsn-24" target="8PyIgW7lQZM39RJWDCPo-22" edge="1">
          <mxGeometry relative="1" as="geometry" />
        </mxCell>
        <mxCell id="qNdCyHQnCkUNs1Sh2Vsn-29" value="отказ системы распознавания" style="text;html=1;align=center;verticalAlign=middle;resizable=0;points=[];autosize=1;strokeColor=none;fillColor=none;" parent="1" vertex="1">
          <mxGeometry x="785" y="973" width="190" height="30" as="geometry" />
        </mxCell>
        <mxCell id="ghwYySfjZZgK7fTL0Agr-3" style="edgeStyle=orthogonalEdgeStyle;rounded=0;orthogonalLoop=1;jettySize=auto;html=1;entryX=0.5;entryY=0;entryDx=0;entryDy=0;" parent="1" source="qNdCyHQnCkUNs1Sh2Vsn-31" target="ghwYySfjZZgK7fTL0Agr-2" edge="1">
          <mxGeometry relative="1" as="geometry" />
        </mxCell>
        <mxCell id="qNdCyHQnCkUNs1Sh2Vsn-31" value="Сохранение отчетности" style="html=1;align=center;verticalAlign=middle;rounded=1;absoluteArcSize=1;arcSize=10;dashed=0;whiteSpace=wrap;" parent="1" vertex="1">
          <mxGeometry x="700" y="1293" width="140" height="60" as="geometry" />
        </mxCell>
        <mxCell id="ghwYySfjZZgK7fTL0Agr-2" value="" style="ellipse;html=1;shape=endState;fillColor=strokeColor;" parent="1" vertex="1">
          <mxGeometry x="755" y="1413" width="30" height="30" as="geometry" />
        </mxCell>
        <mxCell id="ghwYySfjZZgK7fTL0Agr-6" style="edgeStyle=orthogonalEdgeStyle;rounded=0;orthogonalLoop=1;jettySize=auto;html=1;entryX=0.5;entryY=0;entryDx=0;entryDy=0;" parent="1" source="ghwYySfjZZgK7fTL0Agr-4" target="8PyIgW7lQZM39RJWDCPo-4" edge="1">
          <mxGeometry relative="1" as="geometry" />
        </mxCell>
        <mxCell id="ghwYySfjZZgK7fTL0Agr-8" style="edgeStyle=orthogonalEdgeStyle;rounded=0;orthogonalLoop=1;jettySize=auto;html=1;entryX=1;entryY=0.5;entryDx=0;entryDy=0;" parent="1" source="ghwYySfjZZgK7fTL0Agr-4" target="qNdCyHQnCkUNs1Sh2Vsn-1" edge="1">
          <mxGeometry relative="1" as="geometry" />
        </mxCell>
        <mxCell id="ghwYySfjZZgK7fTL0Agr-4" value="" style="rhombus;" parent="1" vertex="1">
          <mxGeometry x="670" y="440" width="30" height="30" as="geometry" />
        </mxCell>
        <mxCell id="ghwYySfjZZgK7fTL0Agr-7" value="система запущена" style="text;html=1;align=center;verticalAlign=middle;resizable=0;points=[];autosize=1;strokeColor=none;fillColor=none;" parent="1" vertex="1">
          <mxGeometry x="687.5" y="478" width="130" height="30" as="geometry" />
        </mxCell>
        <mxCell id="ghwYySfjZZgK7fTL0Agr-9" value="отказ запуска системы" style="text;html=1;align=center;verticalAlign=middle;resizable=0;points=[];autosize=1;strokeColor=none;fillColor=none;" parent="1" vertex="1">
          <mxGeometry x="695" y="418" width="150" height="30" as="geometry" />
        </mxCell>
        <mxCell id="sbMaLpD_oEc01ekbchSM-2" value="UML Диаграмма деятельности Сбой&lt;div&gt;&lt;br&gt;&lt;/div&gt;" style="text;html=1;align=center;verticalAlign=middle;resizable=0;points=[];autosize=1;strokeColor=none;fillColor=none;" vertex="1" parent="1">
          <mxGeometry x="245" y="83" width="230" height="40" as="geometry" />
        </mxCell>
      </root>
    </mxGraphModel>
  </diagram>
  <diagram id="kWB5VSLnmnYTWOKTyJVu" name="UML диаграмма прецендентов">
    <mxGraphModel dx="1213" dy="775" grid="0" gridSize="10" guides="1" tooltips="1" connect="1" arrows="1" fold="1" page="1" pageScale="1" pageWidth="1169" pageHeight="827" background="light-dark(#FFFFFF,#FFFFFF)" math="0" shadow="0">
      <root>
        <mxCell id="0" />
        <mxCell id="1" parent="0" />
        <mxCell id="lex0qALNIu55kitCJnOc-1" value="Администратор системы" style="shape=umlActor;verticalLabelPosition=bottom;verticalAlign=top;html=1;strokeColor=light-dark(#000000,#000000);fontColor=light-dark(#000000,#000000);" parent="1" vertex="1">
          <mxGeometry x="865" y="650" width="30" height="60" as="geometry" />
        </mxCell>
        <mxCell id="lex0qALNIu55kitCJnOc-2" value="UML диаграмма прецендентов&amp;nbsp;&lt;div&gt;Работа с нейронной сетью системы&lt;/div&gt;" style="text;html=1;align=center;verticalAlign=middle;resizable=0;points=[];autosize=1;strokeColor=light-dark(#000000,#000000);fillColor=none;fontColor=light-dark(#000000,#000000);" parent="1" vertex="1">
          <mxGeometry x="80" y="123" width="220" height="40" as="geometry" />
        </mxCell>
        <mxCell id="lex0qALNIu55kitCJnOc-3" value="обучение нейросети" style="ellipse;html=1;whiteSpace=wrap;strokeColor=light-dark(#000000,#000000);fontColor=light-dark(#000000,#000000);fillColor=none;" parent="1" vertex="1">
          <mxGeometry x="290" y="640" width="120" height="80" as="geometry" />
        </mxCell>
        <mxCell id="lex0qALNIu55kitCJnOc-4" value="Разработчик системы" style="shape=umlActor;verticalLabelPosition=bottom;verticalAlign=top;html=1;strokeColor=light-dark(#000000,#000000);fontColor=light-dark(#000000,#000000);" parent="1" vertex="1">
          <mxGeometry x="130" y="470" width="30" height="60" as="geometry" />
        </mxCell>
        <mxCell id="lex0qALNIu55kitCJnOc-5" value="Подготовка DataSet" style="ellipse;html=1;whiteSpace=wrap;strokeColor=light-dark(#000000,#000000);fontColor=light-dark(#000000,#000000);fillColor=none;" parent="1" vertex="1">
          <mxGeometry x="290" y="360" width="120" height="80" as="geometry" />
        </mxCell>
        <mxCell id="lex0qALNIu55kitCJnOc-6" value="Выбор модели NN" style="ellipse;html=1;whiteSpace=wrap;strokeColor=light-dark(#000000,#000000);fontColor=light-dark(#000000,#000000);fillColor=none;" parent="1" vertex="1">
          <mxGeometry x="150" y="304" width="120" height="80" as="geometry" />
        </mxCell>
        <mxCell id="lex0qALNIu55kitCJnOc-8" value="" style="endArrow=none;html=1;rounded=0;entryX=0;entryY=1;entryDx=0;entryDy=0;exitX=0.5;exitY=0.5;exitDx=0;exitDy=0;exitPerimeter=0;strokeColor=light-dark(#000000,#000000);strokeWidth=1;align=center;verticalAlign=bottom;fontFamily=Helvetica;fontSize=11;fontColor=light-dark(#000000,#000000);labelBackgroundColor=none;startArrow=none;startFill=0;endFill=0;endSize=8;" parent="1" source="lex0qALNIu55kitCJnOc-4" target="lex0qALNIu55kitCJnOc-5" edge="1">
          <mxGeometry width="50" height="50" relative="1" as="geometry">
            <mxPoint x="210" y="480" as="sourcePoint" />
            <mxPoint x="260" y="430" as="targetPoint" />
          </mxGeometry>
        </mxCell>
        <mxCell id="lex0qALNIu55kitCJnOc-10" value="Подбор материалов для обучения NN" style="ellipse;html=1;whiteSpace=wrap;strokeColor=light-dark(#000000,#000000);fontColor=light-dark(#000000,#000000);fillColor=none;" parent="1" vertex="1">
          <mxGeometry x="450" y="260" width="120" height="80" as="geometry" />
        </mxCell>
        <mxCell id="lex0qALNIu55kitCJnOc-11" value="Разметка материалов" style="ellipse;html=1;whiteSpace=wrap;strokeColor=light-dark(#000000,#000000);fontColor=light-dark(#000000,#000000);fillColor=none;" parent="1" vertex="1">
          <mxGeometry x="460" y="414" width="120" height="80" as="geometry" />
        </mxCell>
        <mxCell id="lex0qALNIu55kitCJnOc-12" value="&amp;lt;&amp;lt;include&amp;gt;&amp;gt;" style="endArrow=open;html=1;rounded=0;align=center;verticalAlign=bottom;dashed=1;endFill=0;labelBackgroundColor=none;exitX=1;exitY=0;exitDx=0;exitDy=0;entryX=0;entryY=1;entryDx=0;entryDy=0;strokeColor=light-dark(#000000,#000000);fontColor=light-dark(#000000,#000000);" parent="1" source="lex0qALNIu55kitCJnOc-5" target="lex0qALNIu55kitCJnOc-10" edge="1">
          <mxGeometry x="-0.0842" y="14" relative="1" as="geometry">
            <mxPoint x="410" y="590" as="sourcePoint" />
            <mxPoint x="570" y="590" as="targetPoint" />
            <mxPoint as="offset" />
          </mxGeometry>
        </mxCell>
        <mxCell id="lex0qALNIu55kitCJnOc-14" value="&amp;lt;&amp;lt;include&amp;gt;&amp;gt;" style="endArrow=open;html=1;rounded=0;align=center;verticalAlign=bottom;dashed=1;endFill=0;labelBackgroundColor=none;exitX=1;exitY=1;exitDx=0;exitDy=0;entryX=0;entryY=0.5;entryDx=0;entryDy=0;strokeColor=light-dark(#000000,#000000);fontColor=light-dark(#000000,#000000);" parent="1" source="lex0qALNIu55kitCJnOc-5" target="lex0qALNIu55kitCJnOc-11" edge="1">
          <mxGeometry x="0.2299" y="17" relative="1" as="geometry">
            <mxPoint x="402" y="382" as="sourcePoint" />
            <mxPoint x="478" y="338" as="targetPoint" />
            <mxPoint as="offset" />
          </mxGeometry>
        </mxCell>
        <mxCell id="lex0qALNIu55kitCJnOc-17" value="" style="endArrow=none;startArrow=none;endFill=0;startFill=0;endSize=8;html=1;verticalAlign=bottom;labelBackgroundColor=none;strokeWidth=1;rounded=0;exitX=0.5;exitY=0.5;exitDx=0;exitDy=0;exitPerimeter=0;entryX=0.5;entryY=1;entryDx=0;entryDy=0;strokeColor=light-dark(#000000,#000000);align=center;fontFamily=Helvetica;fontSize=11;fontColor=light-dark(#000000,#000000);" parent="1" source="lex0qALNIu55kitCJnOc-4" target="lex0qALNIu55kitCJnOc-6" edge="1">
          <mxGeometry width="160" relative="1" as="geometry">
            <mxPoint x="410" y="490" as="sourcePoint" />
            <mxPoint x="570" y="490" as="targetPoint" />
          </mxGeometry>
        </mxCell>
        <mxCell id="lex0qALNIu55kitCJnOc-18" value="тестирование NN" style="ellipse;html=1;whiteSpace=wrap;strokeColor=light-dark(#000000,#000000);fontColor=light-dark(#000000,#000000);fillColor=none;" parent="1" vertex="1">
          <mxGeometry x="510" y="600" width="120" height="80" as="geometry" />
        </mxCell>
        <mxCell id="lex0qALNIu55kitCJnOc-19" value="&amp;lt;&amp;lt;extend&amp;gt;&amp;gt;" style="endArrow=open;startArrow=none;endFill=0;startFill=0;endSize=8;html=1;verticalAlign=bottom;dashed=1;labelBackgroundColor=none;rounded=0;exitX=0;exitY=0.5;exitDx=0;exitDy=0;entryX=0.938;entryY=0.269;entryDx=0;entryDy=0;entryPerimeter=0;strokeColor=light-dark(#000000,#000000);fontColor=light-dark(#000000,#000000);" parent="1" source="lex0qALNIu55kitCJnOc-18" target="lex0qALNIu55kitCJnOc-3" edge="1">
          <mxGeometry width="160" relative="1" as="geometry">
            <mxPoint x="410" y="490" as="sourcePoint" />
            <mxPoint x="570" y="490" as="targetPoint" />
          </mxGeometry>
        </mxCell>
        <mxCell id="lex0qALNIu55kitCJnOc-20" value="" style="endArrow=none;startArrow=none;endFill=0;startFill=0;endSize=8;html=1;verticalAlign=bottom;labelBackgroundColor=none;strokeWidth=1;rounded=0;exitX=0.667;exitY=0.625;exitDx=0;exitDy=0;exitPerimeter=0;strokeColor=light-dark(#000000,#000000);align=center;fontFamily=Helvetica;fontSize=11;fontColor=light-dark(#000000,#000000);" parent="1" source="lex0qALNIu55kitCJnOc-4" target="lex0qALNIu55kitCJnOc-3" edge="1">
          <mxGeometry width="160" relative="1" as="geometry">
            <mxPoint x="185" y="520" as="sourcePoint" />
            <mxPoint x="300" y="550" as="targetPoint" />
          </mxGeometry>
        </mxCell>
        <mxCell id="lex0qALNIu55kitCJnOc-21" value="Расширение DataSet" style="ellipse;html=1;whiteSpace=wrap;strokeColor=light-dark(#000000,#000000);fontColor=light-dark(#000000,#000000);fillColor=none;" parent="1" vertex="1">
          <mxGeometry x="250" y="200" width="120" height="80" as="geometry" />
        </mxCell>
        <mxCell id="lex0qALNIu55kitCJnOc-22" value="&amp;lt;&amp;lt;extend&amp;gt;&amp;gt;" style="endArrow=open;startArrow=none;endFill=0;startFill=0;endSize=8;html=1;verticalAlign=bottom;dashed=1;labelBackgroundColor=none;rounded=0;exitX=0.5;exitY=1;exitDx=0;exitDy=0;entryX=0.325;entryY=0.019;entryDx=0;entryDy=0;entryPerimeter=0;strokeColor=light-dark(#000000,#000000);fontColor=light-dark(#000000,#000000);" parent="1" source="lex0qALNIu55kitCJnOc-21" target="lex0qALNIu55kitCJnOc-5" edge="1">
          <mxGeometry width="160" relative="1" as="geometry">
            <mxPoint x="500" y="640" as="sourcePoint" />
            <mxPoint x="413" y="672" as="targetPoint" />
          </mxGeometry>
        </mxCell>
        <mxCell id="lex0qALNIu55kitCJnOc-23" value="Дообучение" style="ellipse;html=1;whiteSpace=wrap;strokeColor=light-dark(#000000,#000000);fontColor=light-dark(#000000,#000000);fillColor=none;" parent="1" vertex="1">
          <mxGeometry x="450" y="720" width="120" height="80" as="geometry" />
        </mxCell>
        <mxCell id="lex0qALNIu55kitCJnOc-24" value="&amp;lt;&amp;lt;include&amp;gt;&amp;gt;" style="endArrow=open;html=1;rounded=0;align=center;verticalAlign=bottom;dashed=1;endFill=0;labelBackgroundColor=none;exitX=1;exitY=1;exitDx=0;exitDy=0;entryX=0;entryY=0.5;entryDx=0;entryDy=0;strokeColor=light-dark(#000000,#000000);fontColor=light-dark(#000000,#000000);" parent="1" source="lex0qALNIu55kitCJnOc-3" target="lex0qALNIu55kitCJnOc-23" edge="1">
          <mxGeometry x="0.2299" y="17" relative="1" as="geometry">
            <mxPoint x="402" y="438" as="sourcePoint" />
            <mxPoint x="470" y="464" as="targetPoint" />
            <mxPoint as="offset" />
          </mxGeometry>
        </mxCell>
        <mxCell id="lex0qALNIu55kitCJnOc-25" value="Внедрение обученной модели NN" style="ellipse;html=1;whiteSpace=wrap;strokeColor=light-dark(#000000,#000000);fontColor=light-dark(#000000,#000000);fillColor=none;" parent="1" vertex="1">
          <mxGeometry x="580" y="510" width="120" height="80" as="geometry" />
        </mxCell>
        <mxCell id="lex0qALNIu55kitCJnOc-26" value="" style="endArrow=none;startArrow=none;endFill=0;startFill=0;endSize=8;html=1;verticalAlign=bottom;labelBackgroundColor=none;strokeWidth=1;rounded=0;entryX=0;entryY=0.375;entryDx=0;entryDy=0;strokeColor=light-dark(#000000,#000000);align=center;fontFamily=Helvetica;fontSize=11;fontColor=light-dark(#000000,#000000);entryPerimeter=0;" parent="1" target="lex0qALNIu55kitCJnOc-25" edge="1">
          <mxGeometry width="160" relative="1" as="geometry">
            <mxPoint x="155" y="500" as="sourcePoint" />
            <mxPoint x="220" y="394" as="targetPoint" />
          </mxGeometry>
        </mxCell>
        <mxCell id="lex0qALNIu55kitCJnOc-27" value="" style="endArrow=none;startArrow=none;endFill=0;startFill=0;endSize=8;html=1;verticalAlign=bottom;labelBackgroundColor=none;strokeWidth=1;rounded=0;exitX=1;exitY=0.5;exitDx=0;exitDy=0;strokeColor=light-dark(#000000,#000000);align=center;fontFamily=Helvetica;fontSize=11;fontColor=light-dark(#000000,#000000);entryX=0.5;entryY=0.5;entryDx=0;entryDy=0;entryPerimeter=0;" parent="1" source="lex0qALNIu55kitCJnOc-18" target="lex0qALNIu55kitCJnOc-1" edge="1">
          <mxGeometry width="160" relative="1" as="geometry">
            <mxPoint x="155" y="510" as="sourcePoint" />
            <mxPoint x="220" y="394" as="targetPoint" />
          </mxGeometry>
        </mxCell>
        <mxCell id="lex0qALNIu55kitCJnOc-28" value="" style="endArrow=none;startArrow=none;endFill=0;startFill=0;endSize=8;html=1;verticalAlign=bottom;labelBackgroundColor=none;strokeWidth=1;rounded=0;entryX=1;entryY=0.5;entryDx=0;entryDy=0;strokeColor=light-dark(#000000,#000000);align=center;fontFamily=Helvetica;fontSize=11;fontColor=light-dark(#000000,#000000);exitX=0.5;exitY=0.5;exitDx=0;exitDy=0;exitPerimeter=0;" parent="1" source="lex0qALNIu55kitCJnOc-1" target="lex0qALNIu55kitCJnOc-25" edge="1">
          <mxGeometry width="160" relative="1" as="geometry">
            <mxPoint x="960" y="570" as="sourcePoint" />
            <mxPoint x="230" y="404" as="targetPoint" />
          </mxGeometry>
        </mxCell>
        <mxCell id="lex0qALNIu55kitCJnOc-29" value="Подбор параметром модели NN" style="ellipse;html=1;whiteSpace=wrap;strokeColor=light-dark(#000000,#000000);fontColor=light-dark(#000000,#000000);fillColor=none;" parent="1" vertex="1">
          <mxGeometry x="820" y="390" width="120" height="80" as="geometry" />
        </mxCell>
        <mxCell id="lex0qALNIu55kitCJnOc-30" value="Подбор гиперпараметров модели NN" style="ellipse;html=1;whiteSpace=wrap;strokeColor=light-dark(#000000,#000000);fontColor=light-dark(#000000,#000000);fillColor=none;" parent="1" vertex="1">
          <mxGeometry x="650" y="374" width="120" height="80" as="geometry" />
        </mxCell>
        <mxCell id="lex0qALNIu55kitCJnOc-31" value="&amp;lt;&amp;lt;include&amp;gt;&amp;gt;" style="endArrow=open;html=1;rounded=0;align=center;verticalAlign=bottom;dashed=1;endFill=0;labelBackgroundColor=none;exitX=0.583;exitY=0;exitDx=0;exitDy=0;entryX=0.5;entryY=1;entryDx=0;entryDy=0;exitPerimeter=0;strokeColor=light-dark(#000000,#000000);fontColor=light-dark(#000000,#000000);" parent="1" source="lex0qALNIu55kitCJnOc-25" target="lex0qALNIu55kitCJnOc-30" edge="1">
          <mxGeometry x="-0.0842" y="14" relative="1" as="geometry">
            <mxPoint x="402" y="382" as="sourcePoint" />
            <mxPoint x="478" y="338" as="targetPoint" />
            <mxPoint as="offset" />
          </mxGeometry>
        </mxCell>
        <mxCell id="lex0qALNIu55kitCJnOc-32" value="&amp;lt;&amp;lt;include&amp;gt;&amp;gt;" style="endArrow=open;html=1;rounded=0;align=center;verticalAlign=bottom;dashed=1;endFill=0;labelBackgroundColor=none;exitX=1;exitY=0;exitDx=0;exitDy=0;entryX=0.233;entryY=0.91;entryDx=0;entryDy=0;entryPerimeter=0;strokeColor=light-dark(#000000,#000000);fontColor=light-dark(#000000,#000000);" parent="1" source="lex0qALNIu55kitCJnOc-25" target="lex0qALNIu55kitCJnOc-29" edge="1">
          <mxGeometry x="-0.0842" y="14" relative="1" as="geometry">
            <mxPoint x="412" y="392" as="sourcePoint" />
            <mxPoint x="488" y="348" as="targetPoint" />
            <mxPoint as="offset" />
          </mxGeometry>
        </mxCell>
      </root>
    </mxGraphModel>
  </diagram>
  <diagram id="Ff2kSOVyN1z_ir0o0323" name="UML новый пользователь">
    <mxGraphModel dx="954" dy="558" grid="1" gridSize="10" guides="1" tooltips="1" connect="1" arrows="1" fold="1" page="1" pageScale="1" pageWidth="1169" pageHeight="827" math="0" shadow="0">
      <root>
        <mxCell id="0" />
        <mxCell id="1" parent="0" />
        <mxCell id="R-mwV-5R04L0biKG-HEV-1" value="Администратор&lt;div&gt;&lt;br&gt;&lt;/div&gt;" style="shape=umlActor;verticalLabelPosition=bottom;verticalAlign=top;html=1;" parent="1" vertex="1">
          <mxGeometry x="210" y="300" width="30" height="60" as="geometry" />
        </mxCell>
        <mxCell id="75i127t5-EHvwyB-_U-w-1" value="получение запроса на доступ пользователя" style="ellipse;html=1;whiteSpace=wrap;" parent="1" vertex="1">
          <mxGeometry x="340" y="160" width="120" height="80" as="geometry" />
        </mxCell>
        <mxCell id="k-klTeqnWKSBx5967-n5-1" value="" style="endArrow=none;startArrow=none;endFill=0;startFill=0;endSize=8;html=1;verticalAlign=bottom;labelBackgroundColor=none;strokeWidth=1;rounded=0;exitX=0.617;exitY=0.65;exitDx=0;exitDy=0;exitPerimeter=0;entryX=0;entryY=1;entryDx=0;entryDy=0;strokeColor=default;align=center;fontFamily=Helvetica;fontSize=11;fontColor=default;" parent="1" source="R-mwV-5R04L0biKG-HEV-1" target="75i127t5-EHvwyB-_U-w-1" edge="1">
          <mxGeometry width="160" relative="1" as="geometry">
            <mxPoint x="-45" y="480" as="sourcePoint" />
            <mxPoint x="20" y="364" as="targetPoint" />
          </mxGeometry>
        </mxCell>
        <mxCell id="k-klTeqnWKSBx5967-n5-3" value="" style="endArrow=none;startArrow=none;endFill=0;startFill=0;endSize=8;html=1;verticalAlign=bottom;labelBackgroundColor=none;strokeWidth=1;rounded=0;exitX=0.667;exitY=0.667;exitDx=0;exitDy=0;exitPerimeter=0;entryX=0.017;entryY=0.619;entryDx=0;entryDy=0;strokeColor=default;align=center;fontFamily=Helvetica;fontSize=11;fontColor=default;entryPerimeter=0;" parent="1" source="R-mwV-5R04L0biKG-HEV-1" target="0eLMPf1b6jMl-wh7AWp3-3" edge="1">
          <mxGeometry width="160" relative="1" as="geometry">
            <mxPoint x="269" y="299" as="sourcePoint" />
            <mxPoint x="340" y="340" as="targetPoint" />
          </mxGeometry>
        </mxCell>
        <mxCell id="Umijc7McfZO1Xna3FnqC-1" value="Указание роли пользователя в системе&lt;br&gt;&lt;div&gt;&lt;br&gt;&lt;/div&gt;" style="ellipse;html=1;whiteSpace=wrap;" parent="1" vertex="1">
          <mxGeometry x="550" y="260" width="120" height="80" as="geometry" />
        </mxCell>
        <mxCell id="Umijc7McfZO1Xna3FnqC-2" value="&amp;lt;&amp;lt;include&amp;gt;&amp;gt;" style="endArrow=open;html=1;rounded=0;align=center;verticalAlign=bottom;dashed=1;endFill=0;labelBackgroundColor=none;exitX=1;exitY=0.5;exitDx=0;exitDy=0;entryX=0;entryY=1;entryDx=0;entryDy=0;" parent="1" source="0eLMPf1b6jMl-wh7AWp3-3" target="Umijc7McfZO1Xna3FnqC-1" edge="1">
          <mxGeometry x="-0.0842" y="14" relative="1" as="geometry">
            <mxPoint x="460" y="340" as="sourcePoint" />
            <mxPoint x="638" y="360" as="targetPoint" />
            <mxPoint as="offset" />
          </mxGeometry>
        </mxCell>
        <mxCell id="Umijc7McfZO1Xna3FnqC-3" value="проверка доступности нового пользователя в системе" style="ellipse;html=1;whiteSpace=wrap;" parent="1" vertex="1">
          <mxGeometry x="340" y="440" width="120" height="80" as="geometry" />
        </mxCell>
        <mxCell id="Umijc7McfZO1Xna3FnqC-5" value="" style="endArrow=none;startArrow=none;endFill=0;startFill=0;endSize=8;html=1;verticalAlign=bottom;labelBackgroundColor=none;strokeWidth=1;rounded=0;exitX=0.767;exitY=0.958;exitDx=0;exitDy=0;exitPerimeter=0;entryX=0;entryY=0.5;entryDx=0;entryDy=0;strokeColor=default;align=center;fontFamily=Helvetica;fontSize=11;fontColor=default;" parent="1" source="R-mwV-5R04L0biKG-HEV-1" target="Umijc7McfZO1Xna3FnqC-3" edge="1">
          <mxGeometry width="160" relative="1" as="geometry">
            <mxPoint x="270" y="300" as="sourcePoint" />
            <mxPoint x="350" y="350" as="targetPoint" />
          </mxGeometry>
        </mxCell>
        <mxCell id="Umijc7McfZO1Xna3FnqC-7" value="Оповещение нового пользователя о доступе" style="ellipse;html=1;whiteSpace=wrap;" parent="1" vertex="1">
          <mxGeometry x="540" y="400" width="120" height="80" as="geometry" />
        </mxCell>
        <mxCell id="Umijc7McfZO1Xna3FnqC-8" value="&amp;lt;&amp;lt;include&amp;gt;&amp;gt;" style="endArrow=open;html=1;rounded=0;align=center;verticalAlign=bottom;dashed=1;endFill=0;labelBackgroundColor=none;exitX=1;exitY=0.5;exitDx=0;exitDy=0;entryX=0;entryY=1;entryDx=0;entryDy=0;" parent="1" source="Umijc7McfZO1Xna3FnqC-3" target="Umijc7McfZO1Xna3FnqC-7" edge="1">
          <mxGeometry x="-0.0842" y="14" relative="1" as="geometry">
            <mxPoint x="470" y="459" as="sourcePoint" />
            <mxPoint x="648" y="479" as="targetPoint" />
            <mxPoint as="offset" />
          </mxGeometry>
        </mxCell>
        <mxCell id="nw-PhV9QWcjVZSpGFGtI-1" value="Проверка актуальности учетных данных&amp;nbsp; в Аctive Directory" style="ellipse;html=1;whiteSpace=wrap;" vertex="1" parent="1">
          <mxGeometry x="540" y="130" width="120" height="80" as="geometry" />
        </mxCell>
        <mxCell id="0eLMPf1b6jMl-wh7AWp3-2" value="&amp;lt;&amp;lt;include&amp;gt;&amp;gt;" style="endArrow=open;html=1;rounded=0;align=center;verticalAlign=bottom;dashed=1;endFill=0;labelBackgroundColor=none;exitX=0.988;exitY=0.413;exitDx=0;exitDy=0;exitPerimeter=0;" edge="1" parent="1" source="75i127t5-EHvwyB-_U-w-1" target="nw-PhV9QWcjVZSpGFGtI-1">
          <mxGeometry x="-0.0842" y="14" relative="1" as="geometry">
            <mxPoint x="470" y="350" as="sourcePoint" />
            <mxPoint x="578" y="338" as="targetPoint" />
            <mxPoint as="offset" />
          </mxGeometry>
        </mxCell>
        <mxCell id="0eLMPf1b6jMl-wh7AWp3-3" value="предоставление доступа в систему" style="ellipse;html=1;whiteSpace=wrap;" vertex="1" parent="1">
          <mxGeometry x="340" y="300" width="120" height="80" as="geometry" />
        </mxCell>
      </root>
    </mxGraphModel>
  </diagram>
  <diagram id="R2e72o_mGGV72VWoQhK7" name="UML прецендентов оператор">
    <mxGraphModel dx="954" dy="558" grid="1" gridSize="10" guides="1" tooltips="1" connect="1" arrows="1" fold="1" page="1" pageScale="1" pageWidth="1169" pageHeight="827" math="0" shadow="0">
      <root>
        <mxCell id="0" />
        <mxCell id="1" parent="0" />
        <mxCell id="pm89cbD47AMqXqTxWFye-1" value="&lt;div&gt;Оператор&lt;/div&gt;" style="shape=umlActor;verticalLabelPosition=bottom;verticalAlign=top;html=1;" vertex="1" parent="1">
          <mxGeometry x="290" y="260" width="30" height="60" as="geometry" />
        </mxCell>
        <mxCell id="mvTf8nLkQdcnO_iSLr-s-1" value="Просмотр видеопотока" style="ellipse;html=1;whiteSpace=wrap;" vertex="1" parent="1">
          <mxGeometry x="500" y="110" width="120" height="80" as="geometry" />
        </mxCell>
        <mxCell id="mvTf8nLkQdcnO_iSLr-s-2" value="" style="endArrow=none;startArrow=none;endFill=0;startFill=0;endSize=8;html=1;verticalAlign=bottom;labelBackgroundColor=none;strokeWidth=1;rounded=0;exitX=0.7;exitY=0.358;exitDx=0;exitDy=0;exitPerimeter=0;entryX=0;entryY=1;entryDx=0;entryDy=0;strokeColor=default;align=center;fontFamily=Helvetica;fontSize=11;fontColor=default;" edge="1" parent="1" target="mvTf8nLkQdcnO_iSLr-s-1" source="pm89cbD47AMqXqTxWFye-1">
          <mxGeometry width="160" relative="1" as="geometry">
            <mxPoint x="409" y="359" as="sourcePoint" />
            <mxPoint x="210" y="384" as="targetPoint" />
          </mxGeometry>
        </mxCell>
        <mxCell id="mvTf8nLkQdcnO_iSLr-s-4" value="Получение данных о проверке" style="ellipse;html=1;whiteSpace=wrap;" vertex="1" parent="1">
          <mxGeometry x="510" y="260" width="120" height="80" as="geometry" />
        </mxCell>
        <mxCell id="mvTf8nLkQdcnO_iSLr-s-5" value="" style="endArrow=none;startArrow=none;endFill=0;startFill=0;endSize=8;html=1;verticalAlign=bottom;labelBackgroundColor=none;strokeWidth=1;rounded=0;exitX=0.5;exitY=0.5;exitDx=0;exitDy=0;exitPerimeter=0;entryX=0;entryY=0.5;entryDx=0;entryDy=0;strokeColor=default;align=center;fontFamily=Helvetica;fontSize=11;fontColor=default;" edge="1" parent="1" source="pm89cbD47AMqXqTxWFye-1" target="mvTf8nLkQdcnO_iSLr-s-4">
          <mxGeometry width="160" relative="1" as="geometry">
            <mxPoint x="331" y="251" as="sourcePoint" />
            <mxPoint x="528" y="188" as="targetPoint" />
          </mxGeometry>
        </mxCell>
        <mxCell id="VWHH_wBbPhn_46l5teuN-1" value="подтверждение результата проверки" style="ellipse;html=1;whiteSpace=wrap;" vertex="1" parent="1">
          <mxGeometry x="700" y="200" width="120" height="80" as="geometry" />
        </mxCell>
        <mxCell id="VWHH_wBbPhn_46l5teuN-2" value="&amp;lt;&amp;lt;include&amp;gt;&amp;gt;" style="endArrow=open;html=1;rounded=0;align=center;verticalAlign=bottom;dashed=1;endFill=0;labelBackgroundColor=none;exitX=1;exitY=0.5;exitDx=0;exitDy=0;entryX=0;entryY=1;entryDx=0;entryDy=0;" edge="1" parent="1" target="VWHH_wBbPhn_46l5teuN-1" source="mvTf8nLkQdcnO_iSLr-s-4">
          <mxGeometry x="-0.0842" y="14" relative="1" as="geometry">
            <mxPoint x="660" y="280" as="sourcePoint" />
            <mxPoint x="858" y="360" as="targetPoint" />
            <mxPoint as="offset" />
          </mxGeometry>
        </mxCell>
        <mxCell id="VWHH_wBbPhn_46l5teuN-3" value="Контроль работы системы" style="ellipse;html=1;whiteSpace=wrap;" vertex="1" parent="1">
          <mxGeometry x="510" y="400" width="120" height="80" as="geometry" />
        </mxCell>
        <mxCell id="VWHH_wBbPhn_46l5teuN-4" value="" style="endArrow=none;startArrow=none;endFill=0;startFill=0;endSize=8;html=1;verticalAlign=bottom;labelBackgroundColor=none;strokeWidth=1;rounded=0;exitX=0.55;exitY=0.683;exitDx=0;exitDy=0;exitPerimeter=0;entryX=0;entryY=0;entryDx=0;entryDy=0;strokeColor=default;align=center;fontFamily=Helvetica;fontSize=11;fontColor=default;" edge="1" parent="1" source="pm89cbD47AMqXqTxWFye-1" target="VWHH_wBbPhn_46l5teuN-3">
          <mxGeometry width="160" relative="1" as="geometry">
            <mxPoint x="325" y="260" as="sourcePoint" />
            <mxPoint x="520" y="310" as="targetPoint" />
          </mxGeometry>
        </mxCell>
        <mxCell id="VWHH_wBbPhn_46l5teuN-5" value="получение отчетов системы" style="ellipse;html=1;whiteSpace=wrap;" vertex="1" parent="1">
          <mxGeometry x="720" y="350" width="120" height="80" as="geometry" />
        </mxCell>
        <mxCell id="PyC1fUhj4hsI-uzSqCiu-1" value="&amp;lt;&amp;lt;extend&amp;gt;&amp;gt;" style="endArrow=open;startArrow=none;endFill=0;startFill=0;endSize=8;html=1;verticalAlign=bottom;dashed=1;labelBackgroundColor=none;rounded=0;exitX=0;exitY=0.5;exitDx=0;exitDy=0;entryX=1;entryY=0;entryDx=0;entryDy=0;" edge="1" parent="1" source="VWHH_wBbPhn_46l5teuN-5" target="VWHH_wBbPhn_46l5teuN-3">
          <mxGeometry width="160" relative="1" as="geometry">
            <mxPoint x="310" y="280" as="sourcePoint" />
            <mxPoint x="329" y="362" as="targetPoint" />
          </mxGeometry>
        </mxCell>
      </root>
    </mxGraphModel>
  </diagram>
  <diagram id="TOZ9xKjFLwivThxsrULM" name="UML прецендентов Система распознования">
    <mxGraphModel dx="1468" dy="858" grid="1" gridSize="10" guides="1" tooltips="1" connect="1" arrows="1" fold="1" page="1" pageScale="1" pageWidth="1169" pageHeight="827" math="0" shadow="0">
      <root>
        <mxCell id="0" />
        <mxCell id="1" parent="0" />
        <mxCell id="PAYlNlx10xK4vsUTnLWc-1" value="&lt;div&gt;Система распознавания&amp;nbsp;&lt;/div&gt;&lt;div&gt;запрещенных объектов&lt;/div&gt;" style="shape=umlActor;verticalLabelPosition=bottom;verticalAlign=top;html=1;" vertex="1" parent="1">
          <mxGeometry x="400" y="480" width="30" height="60" as="geometry" />
        </mxCell>
        <mxCell id="aM_ov5XhVxWbIJNdR4oV-1" value="Распознавание запрещенных объектов" style="ellipse;html=1;whiteSpace=wrap;" vertex="1" parent="1">
          <mxGeometry x="530" y="380" width="120" height="80" as="geometry" />
        </mxCell>
        <mxCell id="6wpNtTNCm2KlbIKbwzju-1" value="" style="endArrow=none;startArrow=none;endFill=0;startFill=0;endSize=8;html=1;verticalAlign=bottom;labelBackgroundColor=none;strokeWidth=1;rounded=0;exitX=0.5;exitY=0.5;exitDx=0;exitDy=0;exitPerimeter=0;entryX=0.058;entryY=0.769;entryDx=0;entryDy=0;strokeColor=default;align=center;fontFamily=Helvetica;fontSize=11;fontColor=default;entryPerimeter=0;" edge="1" parent="1" source="PAYlNlx10xK4vsUTnLWc-1" target="aM_ov5XhVxWbIJNdR4oV-1">
          <mxGeometry width="160" relative="1" as="geometry">
            <mxPoint x="421" y="501" as="sourcePoint" />
            <mxPoint x="628" y="398" as="targetPoint" />
          </mxGeometry>
        </mxCell>
        <mxCell id="yCzzPQZxhqkhozzZzgjl-1" value="Классификация объекта" style="ellipse;html=1;whiteSpace=wrap;" vertex="1" parent="1">
          <mxGeometry x="620" y="240" width="120" height="80" as="geometry" />
        </mxCell>
        <mxCell id="yCzzPQZxhqkhozzZzgjl-2" value="&amp;lt;&amp;lt;include&amp;gt;&amp;gt;" style="endArrow=open;html=1;rounded=0;align=center;verticalAlign=bottom;dashed=1;endFill=0;labelBackgroundColor=none;entryX=0;entryY=1;entryDx=0;entryDy=0;" edge="1" parent="1" target="yCzzPQZxhqkhozzZzgjl-1" source="aM_ov5XhVxWbIJNdR4oV-1">
          <mxGeometry x="-0.0842" y="14" relative="1" as="geometry">
            <mxPoint x="560" y="280" as="sourcePoint" />
            <mxPoint x="938" y="480" as="targetPoint" />
            <mxPoint as="offset" />
          </mxGeometry>
        </mxCell>
        <mxCell id="yCzzPQZxhqkhozzZzgjl-3" value="Визуализация распознанного объекта" style="ellipse;html=1;whiteSpace=wrap;" vertex="1" parent="1">
          <mxGeometry x="720" y="340" width="120" height="80" as="geometry" />
        </mxCell>
        <mxCell id="yCzzPQZxhqkhozzZzgjl-4" value="&amp;lt;&amp;lt;include&amp;gt;&amp;gt;" style="endArrow=open;html=1;rounded=0;align=center;verticalAlign=bottom;dashed=1;endFill=0;labelBackgroundColor=none;entryX=0;entryY=0.5;entryDx=0;entryDy=0;exitX=1;exitY=0.5;exitDx=0;exitDy=0;" edge="1" parent="1" target="yCzzPQZxhqkhozzZzgjl-3" source="aM_ov5XhVxWbIJNdR4oV-1">
          <mxGeometry x="-0.0842" y="14" relative="1" as="geometry">
            <mxPoint x="700" y="532" as="sourcePoint" />
            <mxPoint x="1032" y="630" as="targetPoint" />
            <mxPoint as="offset" />
          </mxGeometry>
        </mxCell>
        <mxCell id="yCzzPQZxhqkhozzZzgjl-5" value="Звуковое оповещение" style="ellipse;html=1;whiteSpace=wrap;" vertex="1" parent="1">
          <mxGeometry x="730" y="470" width="120" height="80" as="geometry" />
        </mxCell>
        <mxCell id="yCzzPQZxhqkhozzZzgjl-6" value="&amp;lt;&amp;lt;include&amp;gt;&amp;gt;" style="endArrow=open;html=1;rounded=0;align=center;verticalAlign=bottom;dashed=1;endFill=0;labelBackgroundColor=none;entryX=0.088;entryY=0.163;entryDx=0;entryDy=0;entryPerimeter=0;" edge="1" parent="1" source="aM_ov5XhVxWbIJNdR4oV-1" target="yCzzPQZxhqkhozzZzgjl-5">
          <mxGeometry x="-0.0842" y="14" relative="1" as="geometry">
            <mxPoint x="660" y="430" as="sourcePoint" />
            <mxPoint x="724" y="440" as="targetPoint" />
            <mxPoint as="offset" />
          </mxGeometry>
        </mxCell>
        <mxCell id="yCzzPQZxhqkhozzZzgjl-7" value="Описание объекта" style="ellipse;html=1;whiteSpace=wrap;" vertex="1" parent="1">
          <mxGeometry x="790" y="200" width="120" height="80" as="geometry" />
        </mxCell>
        <mxCell id="VIk54U22CILkTWb__WHc-1" value="&amp;lt;&amp;lt;extend&amp;gt;&amp;gt;" style="endArrow=open;startArrow=none;endFill=0;startFill=0;endSize=8;html=1;verticalAlign=bottom;dashed=1;labelBackgroundColor=none;rounded=0;exitX=0.023;exitY=0.337;exitDx=0;exitDy=0;entryX=1;entryY=0;entryDx=0;entryDy=0;exitPerimeter=0;" edge="1" parent="1" source="yCzzPQZxhqkhozzZzgjl-7" target="yCzzPQZxhqkhozzZzgjl-1">
          <mxGeometry width="160" relative="1" as="geometry">
            <mxPoint x="440" y="390" as="sourcePoint" />
            <mxPoint x="459" y="472" as="targetPoint" />
          </mxGeometry>
        </mxCell>
        <mxCell id="VIk54U22CILkTWb__WHc-2" value="UML Система - распознавание объекта" style="text;html=1;align=center;verticalAlign=middle;resizable=0;points=[];autosize=1;strokeColor=none;fillColor=none;" vertex="1" parent="1">
          <mxGeometry x="40" y="30" width="240" height="30" as="geometry" />
        </mxCell>
        <mxCell id="VIk54U22CILkTWb__WHc-4" value="Визуализация видеопотока от сканера" style="ellipse;html=1;whiteSpace=wrap;" vertex="1" parent="1">
          <mxGeometry x="594" y="590" width="120" height="80" as="geometry" />
        </mxCell>
        <mxCell id="VIk54U22CILkTWb__WHc-5" value="" style="endArrow=none;startArrow=none;endFill=0;startFill=0;endSize=8;html=1;verticalAlign=bottom;labelBackgroundColor=none;strokeWidth=1;rounded=0;exitX=0.6;exitY=0.645;exitDx=0;exitDy=0;exitPerimeter=0;entryX=0.019;entryY=0.359;entryDx=0;entryDy=0;strokeColor=default;align=center;fontFamily=Helvetica;fontSize=11;fontColor=default;entryPerimeter=0;" edge="1" parent="1" source="PAYlNlx10xK4vsUTnLWc-1" target="VIk54U22CILkTWb__WHc-4">
          <mxGeometry width="160" relative="1" as="geometry">
            <mxPoint x="425" y="520" as="sourcePoint" />
            <mxPoint x="547" y="452" as="targetPoint" />
          </mxGeometry>
        </mxCell>
        <mxCell id="VIk54U22CILkTWb__WHc-6" value="&amp;lt;&amp;lt;include&amp;gt;&amp;gt;" style="endArrow=open;html=1;rounded=0;align=center;verticalAlign=bottom;dashed=1;endFill=0;labelBackgroundColor=none;entryX=0;entryY=0.5;entryDx=0;entryDy=0;" edge="1" parent="1" target="VIk54U22CILkTWb__WHc-7">
          <mxGeometry x="-0.0842" y="14" relative="1" as="geometry">
            <mxPoint x="710" y="630" as="sourcePoint" />
            <mxPoint x="810" y="630" as="targetPoint" />
            <mxPoint as="offset" />
          </mxGeometry>
        </mxCell>
        <mxCell id="VIk54U22CILkTWb__WHc-7" value="ожидание подтверждения от оператора" style="ellipse;html=1;whiteSpace=wrap;" vertex="1" parent="1">
          <mxGeometry x="800" y="570" width="120" height="80" as="geometry" />
        </mxCell>
        <mxCell id="VIk54U22CILkTWb__WHc-8" value="генерация отчетов" style="ellipse;html=1;whiteSpace=wrap;" vertex="1" parent="1">
          <mxGeometry x="450" y="680" width="120" height="80" as="geometry" />
        </mxCell>
        <mxCell id="VIk54U22CILkTWb__WHc-9" value="" style="endArrow=none;startArrow=none;endFill=0;startFill=0;endSize=8;html=1;verticalAlign=bottom;labelBackgroundColor=none;strokeWidth=1;rounded=0;strokeColor=default;align=center;fontFamily=Helvetica;fontSize=11;fontColor=default;" edge="1" parent="1" source="PAYlNlx10xK4vsUTnLWc-1" target="VIk54U22CILkTWb__WHc-8">
          <mxGeometry width="160" relative="1" as="geometry">
            <mxPoint x="428" y="529" as="sourcePoint" />
            <mxPoint x="606" y="629" as="targetPoint" />
          </mxGeometry>
        </mxCell>
        <mxCell id="VIk54U22CILkTWb__WHc-10" value="формирование статистики" style="ellipse;html=1;whiteSpace=wrap;" vertex="1" parent="1">
          <mxGeometry x="680" y="700" width="120" height="80" as="geometry" />
        </mxCell>
        <mxCell id="VIk54U22CILkTWb__WHc-11" value="&amp;lt;&amp;lt;extend&amp;gt;&amp;gt;" style="endArrow=open;startArrow=none;endFill=0;startFill=0;endSize=8;html=1;verticalAlign=bottom;dashed=1;labelBackgroundColor=none;rounded=0;exitX=0;exitY=0.5;exitDx=0;exitDy=0;entryX=1.003;entryY=0.616;entryDx=0;entryDy=0;entryPerimeter=0;" edge="1" parent="1" source="VIk54U22CILkTWb__WHc-10" target="VIk54U22CILkTWb__WHc-8">
          <mxGeometry width="160" relative="1" as="geometry">
            <mxPoint x="803" y="237" as="sourcePoint" />
            <mxPoint x="732" y="262" as="targetPoint" />
          </mxGeometry>
        </mxCell>
        <mxCell id="VIk54U22CILkTWb__WHc-12" value="Оповещение о выявленных объектах" style="ellipse;html=1;whiteSpace=wrap;" vertex="1" parent="1">
          <mxGeometry x="430" y="220" width="120" height="80" as="geometry" />
        </mxCell>
        <mxCell id="VIk54U22CILkTWb__WHc-13" value="" style="endArrow=none;startArrow=none;endFill=0;startFill=0;endSize=8;html=1;verticalAlign=bottom;labelBackgroundColor=none;strokeWidth=1;rounded=0;exitX=0.75;exitY=0.1;exitDx=0;exitDy=0;exitPerimeter=0;entryX=0.42;entryY=0.969;entryDx=0;entryDy=0;strokeColor=default;align=center;fontFamily=Helvetica;fontSize=11;fontColor=default;entryPerimeter=0;" edge="1" parent="1" source="PAYlNlx10xK4vsUTnLWc-1" target="VIk54U22CILkTWb__WHc-12">
          <mxGeometry width="160" relative="1" as="geometry">
            <mxPoint x="425" y="520" as="sourcePoint" />
            <mxPoint x="547" y="452" as="targetPoint" />
          </mxGeometry>
        </mxCell>
        <mxCell id="VIk54U22CILkTWb__WHc-14" value="&amp;lt;&amp;lt;include&amp;gt;&amp;gt;" style="endArrow=open;html=1;rounded=0;align=center;verticalAlign=bottom;dashed=1;endFill=0;labelBackgroundColor=none;exitX=1;exitY=0;exitDx=0;exitDy=0;entryX=0.008;entryY=0.682;entryDx=0;entryDy=0;entryPerimeter=0;" edge="1" parent="1" source="VIk54U22CILkTWb__WHc-12" target="VIk54U22CILkTWb__WHc-15">
          <mxGeometry x="-0.0842" y="14" relative="1" as="geometry">
            <mxPoint x="616" y="392" as="sourcePoint" />
            <mxPoint x="580" y="170" as="targetPoint" />
            <mxPoint as="offset" />
          </mxGeometry>
        </mxCell>
        <mxCell id="VIk54U22CILkTWb__WHc-15" value="подтверждение о получении оповещения Сб" style="ellipse;html=1;whiteSpace=wrap;" vertex="1" parent="1">
          <mxGeometry x="620" y="110" width="120" height="80" as="geometry" />
        </mxCell>
        <mxCell id="VIk54U22CILkTWb__WHc-16" value="получение данных о багаже (багажная бирка)" style="ellipse;html=1;whiteSpace=wrap;" vertex="1" parent="1">
          <mxGeometry x="260" y="690" width="120" height="80" as="geometry" />
        </mxCell>
        <mxCell id="VIk54U22CILkTWb__WHc-17" value="" style="endArrow=none;startArrow=none;endFill=0;startFill=0;endSize=8;html=1;verticalAlign=bottom;labelBackgroundColor=none;strokeWidth=1;rounded=0;strokeColor=default;align=center;fontFamily=Helvetica;fontSize=11;fontColor=default;entryX=0.642;entryY=0.046;entryDx=0;entryDy=0;entryPerimeter=0;" edge="1" parent="1" source="PAYlNlx10xK4vsUTnLWc-1" target="VIk54U22CILkTWb__WHc-16">
          <mxGeometry width="160" relative="1" as="geometry">
            <mxPoint x="439" y="550" as="sourcePoint" />
            <mxPoint x="503" y="692" as="targetPoint" />
          </mxGeometry>
        </mxCell>
        <mxCell id="VIk54U22CILkTWb__WHc-18" value="контроль доступа" style="ellipse;html=1;whiteSpace=wrap;" vertex="1" parent="1">
          <mxGeometry x="260" y="260" width="120" height="80" as="geometry" />
        </mxCell>
        <mxCell id="VIk54U22CILkTWb__WHc-19" value="" style="endArrow=none;startArrow=none;endFill=0;startFill=0;endSize=8;html=1;verticalAlign=bottom;labelBackgroundColor=none;strokeWidth=1;rounded=0;strokeColor=default;align=center;fontFamily=Helvetica;fontSize=11;fontColor=default;exitX=0;exitY=0.3333333333333333;exitDx=0;exitDy=0;exitPerimeter=0;" edge="1" parent="1" source="PAYlNlx10xK4vsUTnLWc-1" target="VIk54U22CILkTWb__WHc-18">
          <mxGeometry width="160" relative="1" as="geometry">
            <mxPoint x="412" y="550" as="sourcePoint" />
            <mxPoint x="347" y="704" as="targetPoint" />
          </mxGeometry>
        </mxCell>
        <mxCell id="VIk54U22CILkTWb__WHc-20" value="Распределение по коридорам проверки" style="ellipse;html=1;whiteSpace=wrap;" vertex="1" parent="1">
          <mxGeometry x="290" y="110" width="120" height="80" as="geometry" />
        </mxCell>
        <mxCell id="VIk54U22CILkTWb__WHc-21" value="&amp;lt;&amp;lt;include&amp;gt;&amp;gt;" style="endArrow=open;html=1;rounded=0;align=center;verticalAlign=bottom;dashed=1;endFill=0;labelBackgroundColor=none;exitX=0.465;exitY=0.013;exitDx=0;exitDy=0;entryX=0.38;entryY=0.993;entryDx=0;entryDy=0;entryPerimeter=0;exitPerimeter=0;" edge="1" parent="1" source="VIk54U22CILkTWb__WHc-18" target="VIk54U22CILkTWb__WHc-20">
          <mxGeometry x="-0.0842" y="14" relative="1" as="geometry">
            <mxPoint x="542" y="242" as="sourcePoint" />
            <mxPoint x="631" y="175" as="targetPoint" />
            <mxPoint as="offset" />
          </mxGeometry>
        </mxCell>
        <mxCell id="VIk54U22CILkTWb__WHc-22" value="требование аутентификации пользователей" style="ellipse;html=1;whiteSpace=wrap;" vertex="1" parent="1">
          <mxGeometry x="140" y="430" width="120" height="80" as="geometry" />
        </mxCell>
        <mxCell id="VIk54U22CILkTWb__WHc-23" value="" style="endArrow=none;startArrow=none;endFill=0;startFill=0;endSize=8;html=1;verticalAlign=bottom;labelBackgroundColor=none;strokeWidth=1;rounded=0;strokeColor=default;align=center;fontFamily=Helvetica;fontSize=11;fontColor=default;entryX=1;entryY=0.5;entryDx=0;entryDy=0;" edge="1" parent="1" target="VIk54U22CILkTWb__WHc-22">
          <mxGeometry width="160" relative="1" as="geometry">
            <mxPoint x="410" y="520" as="sourcePoint" />
            <mxPoint x="345" y="349" as="targetPoint" />
          </mxGeometry>
        </mxCell>
        <mxCell id="VIk54U22CILkTWb__WHc-24" value="двухфакторная аутентификация" style="ellipse;html=1;whiteSpace=wrap;" vertex="1" parent="1">
          <mxGeometry x="60" y="550" width="120" height="80" as="geometry" />
        </mxCell>
        <mxCell id="VIk54U22CILkTWb__WHc-25" value="&amp;lt;&amp;lt;extend&amp;gt;&amp;gt;" style="endArrow=open;startArrow=none;endFill=0;startFill=0;endSize=8;html=1;verticalAlign=bottom;dashed=1;labelBackgroundColor=none;rounded=0;exitX=0.5;exitY=0;exitDx=0;exitDy=0;entryX=0.167;entryY=0.898;entryDx=0;entryDy=0;entryPerimeter=0;" edge="1" parent="1" source="VIk54U22CILkTWb__WHc-24" target="VIk54U22CILkTWb__WHc-22">
          <mxGeometry width="160" relative="1" as="geometry">
            <mxPoint x="803" y="237" as="sourcePoint" />
            <mxPoint x="732" y="262" as="targetPoint" />
          </mxGeometry>
        </mxCell>
      </root>
    </mxGraphModel>
  </diagram>
  <diagram id="TCuZx5LdVuoWAugMZoYX" name="UML - Диагр последовательности">
    <mxGraphModel dx="954" dy="558" grid="1" gridSize="10" guides="1" tooltips="1" connect="1" arrows="1" fold="1" page="1" pageScale="1" pageWidth="1169" pageHeight="827" math="0" shadow="0">
      <root>
        <mxCell id="0" />
        <mxCell id="1" parent="0" />
      </root>
    </mxGraphModel>
  </diagram>
</mxfile>
